<svg width="23" height="23" viewBox="0 0 23 23" fill="none" xmlns="http://www.w3.org/2000/svg">
<path d="M18.8063 5.32841C17.0144 3.53288 14.6802 2.47874 12.1738 2.3181V1.34766H13.1621C13.5342 1.34766 13.8359 1.04596 13.8359 0.673828C13.8359 0.301695 13.5342 0 13.1621 0H9.83785C9.46571 0 9.16402 0.301695 9.16402 0.673828C9.16402 1.04596 9.46571 1.34766 9.83785 1.34766H10.8261V2.3181C9.10755 2.42825 7.4701 2.95855 6.03283 3.86L5.39274 3.21861C5.0812 2.90645 4.6668 2.73457 4.2258 2.73457C3.7848 2.73457 3.3704 2.90649 3.05891 3.21861L2.08541 4.19422C1.4446 4.83629 1.4446 5.88108 2.08541 6.5232L2.72986 7.16899C1.71269 8.79656 1.16797 10.6802 1.16797 12.6479C1.16797 15.4128 2.2425 18.0123 4.19364 19.9675C6.14513 21.923 8.73991 23 11.5 23C14.26 23 16.8548 21.923 18.8063 19.9675C20.7574 18.0123 21.8319 15.4128 21.8319 12.6479C21.8319 9.88308 20.7574 7.28359 18.8063 5.32841ZM3.03932 5.1462L4.01287 4.17064C4.0896 4.09378 4.17922 4.08228 4.22585 4.08228C4.27247 4.08228 4.36214 4.09373 4.43887 4.17064L4.92717 4.65993C4.67394 4.86985 4.42903 5.09261 4.19368 5.32845C3.95901 5.56362 3.73732 5.80831 3.52839 6.06131L3.03932 5.57126C2.92235 5.45405 2.92235 5.26336 3.03932 5.1462ZM11.5 21.6523C6.54597 21.6523 2.51562 17.613 2.51562 12.6479C2.51562 7.6829 6.54597 3.64352 11.5 3.64352C16.4539 3.64352 20.4843 7.68285 20.4843 12.6479C20.4843 17.613 16.4539 21.6523 11.5 21.6523Z" fill="#153D8A"/>
<path d="M11.5 4.90674C7.23956 4.90674 3.77344 8.37947 3.77344 12.648C3.77344 16.9166 7.23956 20.3893 11.5 20.3893C15.7605 20.3893 19.2267 16.9166 19.2267 12.648C19.2267 8.37947 15.7605 4.90674 11.5 4.90674ZM12.1739 19.006V18.2184C12.1739 17.8463 11.8722 17.5446 11.5 17.5446C11.1279 17.5446 10.8262 17.8463 10.8262 18.2184V19.006C7.84538 18.6909 5.47018 16.3098 5.15649 13.3219H5.92973C6.30187 13.3219 6.60356 13.0202 6.60356 12.648C6.60356 12.2759 6.30187 11.9742 5.92973 11.9742H5.15654C5.47018 8.98632 7.84538 6.60519 10.8262 6.29006V7.07768C10.8262 7.44981 11.1279 7.75151 11.5 7.75151C11.8722 7.75151 12.1739 7.44981 12.1739 7.07768V6.29006C15.1547 6.60519 17.5299 8.98632 17.8436 11.9742H17.0704C16.6982 11.9742 16.3965 12.2759 16.3965 12.648C16.3965 13.0202 16.6982 13.3219 17.0704 13.3219H17.8436C17.5299 16.3098 15.1547 18.6909 12.1739 19.006Z" fill="#153D8A"/>
<path d="M13.1621 12.259H12.2114V9.53369C12.2114 9.16156 11.9097 8.85986 11.5376 8.85986C11.1655 8.85986 10.8638 9.16156 10.8638 9.53369V12.9328C10.8638 13.3049 11.1655 13.6066 11.5376 13.6066H13.1621C13.5342 13.6066 13.8359 13.3049 13.8359 12.9328C13.8359 12.5607 13.5342 12.259 13.1621 12.259Z" fill="#153D8A"/>
</svg>
