<svg width="20" height="20" viewBox="0 0 20 20" fill="currentColor" xmlns="http://www.w3.org/2000/svg">
    <path fill-rule="evenodd" clip-rule="evenodd"
        d="M14.5833 12.5002C14.2064 12.5002 13.674 12.5523 13.1198 12.6282C12.8608 12.6636 12.6634 12.8611 12.6279 13.12C12.552 13.6743 12.4999 14.2067 12.4999 14.5835C12.4999 14.9603 12.552 15.4927 12.6279 16.047C12.6634 16.3059 12.8608 16.5034 13.1198 16.5388C13.674 16.6147 14.2064 16.6668 14.5833 16.6668C14.9601 16.6668 15.4925 16.6147 16.0467 16.5388C16.3057 16.5034 16.5031 16.3059 16.5386 16.047C16.6145 15.4927 16.6666 14.9603 16.6666 14.5835C16.6666 14.2067 16.6145 13.6743 16.5386 13.12C16.5031 12.8611 16.3057 12.6636 16.0467 12.6282C15.4925 12.5523 14.9601 12.5002 14.5833 12.5002ZM12.8936 10.9769C11.8937 11.1138 11.1136 11.8939 10.9767 12.8939C10.8981 13.4674 10.8333 14.0903 10.8333 14.5835C10.8333 15.0767 10.8981 15.6996 10.9767 16.2731C11.1136 17.2731 11.8937 18.0531 12.8936 18.1901C13.4671 18.2686 14.0901 18.3335 14.5833 18.3335C15.0765 18.3335 15.6994 18.2686 16.2729 18.1901C17.2728 18.0531 18.0529 17.2731 18.1898 16.2731C18.2684 15.6996 18.3333 15.0767 18.3333 14.5835C18.3333 14.0903 18.2684 13.4674 18.1898 12.8939C18.0529 11.8939 17.2728 11.1138 16.2729 10.9769C15.6994 10.8984 15.0765 10.8335 14.5833 10.8335C14.0901 10.8335 13.4671 10.8984 12.8936 10.9769Z"
        fill="#72767C" />
    <path fill-rule="evenodd" clip-rule="evenodd"
        d="M5.41675 12.5002C5.03993 12.5002 4.50752 12.5523 3.95326 12.6282C3.69432 12.6636 3.49687 12.8611 3.46141 13.12C3.3855 13.6743 3.33341 14.2067 3.33341 14.5835C3.33341 14.9603 3.3855 15.4927 3.46141 16.047C3.49687 16.3059 3.69432 16.5034 3.95326 16.5388C4.50752 16.6147 5.03993 16.6668 5.41675 16.6668C5.79357 16.6668 6.32598 16.6147 6.88024 16.5388C7.13918 16.5034 7.33662 16.3059 7.37209 16.047C7.44799 15.4927 7.50008 14.9603 7.50008 14.5835C7.50008 14.2067 7.44799 13.6743 7.37209 13.12C7.33662 12.8611 7.13918 12.6636 6.88024 12.6282C6.32598 12.5523 5.79357 12.5002 5.41675 12.5002ZM3.72711 10.9769C2.72719 11.1138 1.9471 11.8939 1.81016 12.8939C1.73161 13.4674 1.66675 14.0903 1.66675 14.5835C1.66675 15.0767 1.73161 15.6996 1.81016 16.2731C1.9471 17.2731 2.72719 18.0531 3.72711 18.1901C4.30062 18.2686 4.92355 18.3335 5.41675 18.3335C5.90995 18.3335 6.53288 18.2686 7.10639 18.1901C8.1063 18.0531 8.8864 17.2731 9.02334 16.2731C9.10188 15.6996 9.16675 15.0767 9.16675 14.5835C9.16675 14.0903 9.10188 13.4674 9.02334 12.8939C8.8864 11.8939 8.1063 11.1138 7.10639 10.9769C6.53288 10.8984 5.90995 10.8335 5.41675 10.8335C4.92355 10.8335 4.30062 10.8984 3.72711 10.9769Z"
        fill="#72767C" />
    <path fill-rule="evenodd" clip-rule="evenodd"
        d="M14.5833 3.33317C14.2064 3.33317 13.674 3.38526 13.1198 3.46117C12.8608 3.49663 12.6634 3.69407 12.6279 3.95301C12.552 4.50728 12.4999 5.03969 12.4999 5.4165C12.4999 5.79332 12.552 6.32573 12.6279 6.87999C12.6634 7.13893 12.8608 7.33638 13.1198 7.37184C13.674 7.44775 14.2064 7.49984 14.5833 7.49984C14.9601 7.49984 15.4925 7.44775 16.0467 7.37184C16.3057 7.33638 16.5031 7.13893 16.5386 6.87999C16.6145 6.32573 16.6666 5.79332 16.6666 5.4165C16.6666 5.03969 16.6145 4.50728 16.5386 3.95301C16.5031 3.69407 16.3057 3.49663 16.0467 3.46117C15.4925 3.38526 14.9601 3.33317 14.5833 3.33317ZM12.8936 1.80991C11.8937 1.94686 11.1136 2.72695 10.9767 3.72687C10.8981 4.30038 10.8333 4.92331 10.8333 5.4165C10.8333 5.9097 10.8981 6.53263 10.9767 7.10614C11.1136 8.10606 11.8937 8.88615 12.8936 9.02309C13.4671 9.10164 14.0901 9.1665 14.5833 9.1665C15.0765 9.1665 15.6994 9.10164 16.2729 9.02309C17.2728 8.88615 18.0529 8.10606 18.1898 7.10614C18.2684 6.53263 18.3333 5.9097 18.3333 5.4165C18.3333 4.92331 18.2684 4.30038 18.1898 3.72687C18.0529 2.72695 17.2728 1.94686 16.2729 1.80991C15.6994 1.73137 15.0765 1.6665 14.5833 1.6665C14.0901 1.6665 13.4671 1.73137 12.8936 1.80991Z"
        fill="#72767C" />
    <path fill-rule="evenodd" clip-rule="evenodd"
        d="M5.41675 3.33317C5.03993 3.33317 4.50752 3.38526 3.95326 3.46117C3.69432 3.49663 3.49687 3.69407 3.46141 3.95301C3.3855 4.50728 3.33341 5.03969 3.33341 5.4165C3.33341 5.79332 3.3855 6.32573 3.46141 6.87999C3.49687 7.13893 3.69432 7.33638 3.95326 7.37184C4.50752 7.44775 5.03993 7.49984 5.41675 7.49984C5.79357 7.49984 6.32598 7.44775 6.88024 7.37184C7.13918 7.33638 7.33662 7.13893 7.37209 6.87999C7.44799 6.32573 7.50008 5.79332 7.50008 5.4165C7.50008 5.03969 7.44799 4.50728 7.37209 3.95301C7.33662 3.69407 7.13918 3.49663 6.88024 3.46117C6.32598 3.38526 5.79357 3.33317 5.41675 3.33317ZM3.72711 1.80991C2.72719 1.94686 1.9471 2.72695 1.81016 3.72687C1.73161 4.30038 1.66675 4.92331 1.66675 5.4165C1.66675 5.9097 1.73161 6.53263 1.81016 7.10614C1.9471 8.10606 2.72719 8.88615 3.72711 9.02309C4.30062 9.10164 4.92355 9.1665 5.41675 9.1665C5.90995 9.1665 6.53288 9.10164 7.10639 9.02309C8.1063 8.88615 8.8864 8.10606 9.02334 7.10614C9.10188 6.53263 9.16675 5.9097 9.16675 5.4165C9.16675 4.92331 9.10188 4.30038 9.02334 3.72687C8.8864 2.72695 8.1063 1.94686 7.10639 1.80991C6.53288 1.73137 5.90995 1.6665 5.41675 1.6665C4.92355 1.6665 4.30062 1.73137 3.72711 1.80991Z"
        fill="#72767C" />
</svg>