<svg width="21" height="15" viewBox="0 0 21 15" fill="none" xmlns="http://www.w3.org/2000/svg">
<path d="M12.0388 14.2111H17.1078C17.7341 14.2111 18.2663 14.0698 18.7083 13.8237L12.0388 9.84516V14.2111ZM20.1681 11.7432C20.2404 11.421 20.2771 11.0798 20.2771 10.7259V9.14184H15.8069L20.1669 11.7432M0.110921 2.72961C0.0358383 3.06667 -0.00135353 3.41107 3.76239e-05 3.75639V5.34044H4.48733L0.110921 2.72961ZM8.23709 0.271484H3.16814C2.54624 0.271484 2.01748 0.410881 1.57743 0.653557L8.23709 4.62635V0.271484ZM1.59771 13.8392C2.03364 14.0749 2.55543 14.2111 3.16814 14.2111H8.23709V9.87842L1.59771 13.8392ZM3.76239e-05 9.14216V10.7262C3.76239e-05 11.0909 0.0386884 11.4422 0.11504 11.7726L4.52472 9.14216H3.76239e-05ZM18.7282 0.669081C18.2828 0.416266 17.7433 0.271484 17.1078 0.271484H12.0388V4.65962L18.7282 0.669081ZM20.2759 5.34044V3.75639C20.2759 3.4098 20.2401 3.07557 20.1707 2.75939L15.8443 5.34044H20.2759Z" fill="#2E3192"/>
<path d="M15.8443 5.34044L20.1706 2.75939C19.9723 1.85205 19.4895 1.10089 18.7282 0.669081L12.0388 4.65962V0.271484H11.4052V5.97406H20.2758V5.34044H15.8443ZM0 8.50854V9.14216H4.52468L0.115002 11.7726C0.324413 12.6771 0.821805 13.4197 1.59767 13.8392L8.23705 9.87842V14.2111H8.87067V8.50854H0ZM20.2758 8.50854H11.4052V14.2111H12.0388V9.84516L18.7083 13.824C19.4752 13.3969 19.9641 12.6499 20.1668 11.7438L15.8069 9.14216H20.2758V8.50854ZM8.23705 0.271484V4.62635L1.5774 0.653557C0.807548 1.07808 0.315543 1.82385 0.110567 2.72961L4.48729 5.34044H0V5.97406H8.87067V0.271484H8.23705Z" fill="#E6E7E8"/>
<path d="M11.4052 5.97406V0.271484H8.87067V5.97406H0V8.50854H8.87067V14.2111H11.4052V8.50854H20.2758V5.97406H11.4052Z" fill="#BE1E2D"/>
<path d="M6.95028 5.34027L0.598243 1.54838C0.461698 1.75113 0.352082 1.97417 0.261475 2.21178L5.50373 5.34027H6.94933M19.9876 12.3386L14.6611 9.14199H13.186L19.6214 13.0131C19.7706 12.8046 19.8936 12.5784 19.9876 12.3399M19.2365 1.02881L12.0291 5.34027L13.4924 5.34122L19.7117 1.61776C19.5729 1.36526 19.4266 1.20242 19.2365 1.02881ZM0.574483 12.9041C0.716994 13.1211 0.888496 13.3177 1.08423 13.4883L8.25712 9.14199H6.81152L0.574483 12.9041Z" fill="#BE1E2D"/>
</svg>
