<svg width="30" height="30" viewBox="0 0 30 30" fill="none" xmlns="http://www.w3.org/2000/svg">
<rect width="30" height="30" rx="6" fill="#DADADA"/>
<path d="M14.375 8.125V6.25C14.375 6.08424 14.4408 5.92527 14.5581 5.80806C14.6753 5.69085 14.8342 5.625 15 5.625C15.1658 5.625 15.3247 5.69085 15.4419 5.80806C15.5592 5.92527 15.625 6.08424 15.625 6.25V8.125C15.625 8.29076 15.5592 8.44973 15.4419 8.56694C15.3247 8.68415 15.1658 8.75 15 8.75C14.8342 8.75 14.6753 8.68415 14.5581 8.56694C14.4408 8.44973 14.375 8.29076 14.375 8.125ZM20 15C20 15.9889 19.7068 16.9556 19.1573 17.7779C18.6079 18.6001 17.827 19.241 16.9134 19.6194C15.9998 19.9978 14.9945 20.0969 14.0245 19.9039C13.0546 19.711 12.1637 19.2348 11.4645 18.5355C10.7652 17.8363 10.289 16.9454 10.0961 15.9755C9.90315 15.0055 10.0022 14.0002 10.3806 13.0866C10.759 12.173 11.3999 11.3921 12.2221 10.8427C13.0444 10.2932 14.0111 10 15 10C16.3256 10.0014 17.5966 10.5287 18.5339 11.4661C19.4713 12.4034 19.9986 13.6744 20 15ZM18.75 15C18.75 14.2583 18.5301 13.5333 18.118 12.9166C17.706 12.2999 17.1203 11.8193 16.4351 11.5355C15.7498 11.2516 14.9958 11.1774 14.2684 11.3221C13.541 11.4668 12.8728 11.8239 12.3483 12.3483C11.8239 12.8728 11.4668 13.541 11.3221 14.2684C11.1774 14.9958 11.2516 15.7498 11.5355 16.4351C11.8193 17.1203 12.2999 17.706 12.9166 18.118C13.5333 18.5301 14.2583 18.75 15 18.75C15.9942 18.749 16.9475 18.3535 17.6505 17.6505C18.3535 16.9475 18.749 15.9942 18.75 15ZM9.55781 10.4422C9.67509 10.5595 9.83415 10.6253 10 10.6253C10.1659 10.6253 10.3249 10.5595 10.4422 10.4422C10.5595 10.3249 10.6253 10.1659 10.6253 10C10.6253 9.83415 10.5595 9.67509 10.4422 9.55781L9.19219 8.30781C9.07491 8.19054 8.91585 8.12465 8.75 8.12465C8.58415 8.12465 8.42509 8.19054 8.30781 8.30781C8.19054 8.42509 8.12465 8.58415 8.12465 8.75C8.12465 8.91585 8.19054 9.07491 8.30781 9.19219L9.55781 10.4422ZM9.55781 19.5578L8.30781 20.8078C8.19054 20.9251 8.12465 21.0841 8.12465 21.25C8.12465 21.4159 8.19054 21.5749 8.30781 21.6922C8.42509 21.8095 8.58415 21.8753 8.75 21.8753C8.91585 21.8753 9.07491 21.8095 9.19219 21.6922L10.4422 20.4422C10.5003 20.3841 10.5463 20.3152 10.5777 20.2393C10.6092 20.1634 10.6253 20.0821 10.6253 20C10.6253 19.9179 10.6092 19.8366 10.5777 19.7607C10.5463 19.6848 10.5003 19.6159 10.4422 19.5578C10.3841 19.4997 10.3152 19.4537 10.2393 19.4223C10.1634 19.3908 10.0821 19.3747 10 19.3747C9.91788 19.3747 9.83656 19.3908 9.76069 19.4223C9.68482 19.4537 9.61588 19.4997 9.55781 19.5578ZM20 10.625C20.0821 10.6251 20.1634 10.609 20.2393 10.5776C20.3152 10.5462 20.3841 10.5002 20.4422 10.4422L21.6922 9.19219C21.8095 9.07491 21.8753 8.91585 21.8753 8.75C21.8753 8.58415 21.8095 8.42509 21.6922 8.30781C21.5749 8.19054 21.4159 8.12465 21.25 8.12465C21.0841 8.12465 20.9251 8.19054 20.8078 8.30781L19.5578 9.55781C19.4703 9.64522 19.4107 9.75663 19.3865 9.87793C19.3624 9.99924 19.3748 10.125 19.4221 10.2392C19.4695 10.3535 19.5496 10.4512 19.6525 10.5198C19.7554 10.5885 19.8763 10.6251 20 10.625ZM20.4422 19.5578C20.3249 19.4405 20.1659 19.3747 20 19.3747C19.8341 19.3747 19.6751 19.4405 19.5578 19.5578C19.4405 19.6751 19.3747 19.8341 19.3747 20C19.3747 20.1659 19.4405 20.3249 19.5578 20.4422L20.8078 21.6922C20.8659 21.7503 20.9348 21.7963 21.0107 21.8277C21.0866 21.8592 21.1679 21.8753 21.25 21.8753C21.3321 21.8753 21.4134 21.8592 21.4893 21.8277C21.5652 21.7963 21.6341 21.7503 21.6922 21.6922C21.7503 21.6341 21.7963 21.5652 21.8277 21.4893C21.8592 21.4134 21.8753 21.3321 21.8753 21.25C21.8753 21.1679 21.8592 21.0866 21.8277 21.0107C21.7963 20.9348 21.7503 20.8659 21.6922 20.8078L20.4422 19.5578ZM8.75 15C8.75 14.8342 8.68415 14.6753 8.56694 14.5581C8.44973 14.4408 8.29076 14.375 8.125 14.375H6.25C6.08424 14.375 5.92527 14.4408 5.80806 14.5581C5.69085 14.6753 5.625 14.8342 5.625 15C5.625 15.1658 5.69085 15.3247 5.80806 15.4419C5.92527 15.5592 6.08424 15.625 6.25 15.625H8.125C8.29076 15.625 8.44973 15.5592 8.56694 15.4419C8.68415 15.3247 8.75 15.1658 8.75 15ZM15 21.25C14.8342 21.25 14.6753 21.3158 14.5581 21.4331C14.4408 21.5503 14.375 21.7092 14.375 21.875V23.75C14.375 23.9158 14.4408 24.0747 14.5581 24.1919C14.6753 24.3092 14.8342 24.375 15 24.375C15.1658 24.375 15.3247 24.3092 15.4419 24.1919C15.5592 24.0747 15.625 23.9158 15.625 23.75V21.875C15.625 21.7092 15.5592 21.5503 15.4419 21.4331C15.3247 21.3158 15.1658 21.25 15 21.25ZM23.75 14.375H21.875C21.7092 14.375 21.5503 14.4408 21.4331 14.5581C21.3158 14.6753 21.25 14.8342 21.25 15C21.25 15.1658 21.3158 15.3247 21.4331 15.4419C21.5503 15.5592 21.7092 15.625 21.875 15.625H23.75C23.9158 15.625 24.0747 15.5592 24.1919 15.4419C24.3092 15.3247 24.375 15.1658 24.375 15C24.375 14.8342 24.3092 14.6753 24.1919 14.5581C24.0747 14.4408 23.9158 14.375 23.75 14.375Z" fill="#353535"/>
</svg>
