<svg width="20" height="20" viewBox="0 0 20 20" fill="none" xmlns="http://www.w3.org/2000/svg">
<path fill-rule="evenodd" clip-rule="evenodd" d="M10.0001 18.3332C14.6025 18.3332 18.3334 14.6022 18.3334 9.99984C18.3334 5.39746 14.6025 1.6665 10.0001 1.6665C5.39771 1.6665 1.66675 5.39746 1.66675 9.99984C1.66675 14.6022 5.39771 18.3332 10.0001 18.3332ZM15.2666 14.0879C16.1442 12.959 16.6667 11.5405 16.6667 9.99984C16.6667 6.60016 14.122 3.79483 10.8334 3.38475V6.77152C12.2711 7.14155 13.3334 8.44664 13.3334 9.99984C13.3334 10.618 13.1651 11.1969 12.8719 11.6932L15.2666 14.0879ZM14.088 15.2664L11.6933 12.8717C11.1971 13.1649 10.6182 13.3332 10.0001 13.3332C9.38194 13.3332 8.8031 13.1649 8.30685 12.8717L5.91212 15.2664C7.04101 16.144 8.45952 16.6665 10.0001 16.6665C11.5406 16.6665 12.9592 16.144 14.088 15.2664ZM6.66675 9.99984C6.66675 10.618 6.83504 11.1969 7.12831 11.6932L4.73359 14.0879C3.856 12.959 3.33341 11.5405 3.33341 9.99984C3.33341 6.60016 5.87815 3.79483 9.16675 3.38475V6.77152C7.72906 7.14155 6.66675 8.44664 6.66675 9.99984ZM10.0001 11.6665C10.9206 11.6665 11.6667 10.9203 11.6667 9.99984C11.6667 9.07936 10.9206 8.33317 10.0001 8.33317C9.07961 8.33317 8.33341 9.07936 8.33341 9.99984C8.33341 10.9203 9.07961 11.6665 10.0001 11.6665Z" fill="white"/>
</svg>
