<svg xmlns="http://www.w3.org/2000/svg" width="33" height="34" viewBox="0 0 33 34" fill="none">
    <path
        d="M30.6563 23.4608C31.8293 21.2397 32.4959 18.7099 32.4999 16.0244C32.5131 7.20831 25.3202 0.00225053 16.5041 5.29659e-07C7.66431 -0.00224947 0.497751 7.16431 0.500001 16.0041C0.502251 24.8202 7.70831 32.0131 16.5244 31.9999C19.2099 31.9959 21.7397 31.3293 23.9607 30.1563L30.3622 31.0047C31.0263 31.0927 31.5927 30.5263 31.5047 29.8622L30.6563 23.4608Z"
        fill="#153D8A" />
    <path
        d="M31.5049 29.8625C31.5931 30.5263 31.0262 31.0932 30.3624 31.005L23.9606 30.1563C21.7399 31.3294 19.21 31.9963 16.5243 32C8.58621 32.0119 1.95309 26.1813 0.709961 18.5838C3.09621 23.7344 8.31246 27.3069 14.3631 27.3069C22.6693 27.3069 29.4031 20.5732 29.4031 12.2669C29.4031 9.09754 28.4231 6.15692 26.7493 3.73254C30.2662 6.67754 32.5074 11.0994 32.4999 16.0244C32.4962 18.71 31.8293 21.24 30.6562 23.4607L31.5049 29.8625Z"
        fill="#274E99" />
    <path
        d="M2.25535 15.2C3.02235 15.2 3.67353 14.643 3.79778 13.8862C4.23035 11.2513 5.46985 8.82272 7.39516 6.89684C9.44922 4.84172 12.0763 3.56753 14.9165 3.2216C15.7004 3.1261 16.29 2.46122 16.29 1.67147C16.29 0.73566 15.4723 0.00647301 14.5433 0.119785C7.48816 0.979972 1.85066 6.43178 0.710974 13.3968C0.556162 14.3432 1.29635 15.2 2.25535 15.2Z"
        fill="#274E99" />
    <path
        d="M30.3623 31.005L25.7642 30.3954C27.4904 29.8779 30.2225 26.3544 30.6562 23.4608L31.5048 29.8625C31.593 30.5262 31.0261 31.0931 30.3623 31.005Z"
        fill="#153D8A" />
    <g filter="url(#filter0_d_264_742)">
        <path
            d="M28.2492 16C28.2492 20.9835 27.5928 25.0234 16.4999 25.0234C6.46724 25.0234 4.97136 21.7189 4.77705 17.4005C4.75649 16.9441 4.75049 16.4764 4.75049 16C4.75049 12.057 5.16143 8.70469 10.8274 7.47675C12.3225 7.15269 14.1837 6.97656 16.4999 6.97656C18.9645 6.97656 20.914 7.176 22.4555 7.54094C27.8522 8.81831 28.2492 12.1237 28.2492 16Z"
            fill="#E2E2E2" />
        <path
            d="M6.48117 15.8136C7.35517 15.8136 8.0826 15.1405 8.14929 14.2691C8.2331 13.1737 8.4376 12.4031 8.89217 11.9242C9.1076 11.6973 9.49242 11.4121 10.1765 11.1455C10.9363 10.8494 11.3725 10.0515 11.199 9.25464C11.1966 9.24377 11.1942 9.23283 11.1919 9.22195C10.9747 8.22683 9.91917 7.65345 8.9696 8.02189C5.83629 9.23777 5.01448 11.414 4.81223 14.0147C4.73679 14.9853 5.50761 15.8136 6.48117 15.8136Z"
            fill="#EAF4F4" />
        <path
            d="M28.2495 15.9999C28.2495 20.9834 27.593 25.0237 16.4998 25.0237C7.3344 25.0237 5.29334 22.2654 4.86084 18.4958C7.17646 20.9585 10.4637 22.4962 14.1106 22.4962C21.0798 22.4962 26.7373 16.8798 26.8034 9.92676C28.105 11.5299 28.2495 13.6607 28.2495 15.9999Z"
            fill="#C6C6C6" />
        <path
            d="M16.4998 22.0809C21.6987 22.0809 25.9132 19.6486 25.9132 16.6483C25.9132 13.6479 21.6987 11.2156 16.4998 11.2156C11.3009 11.2156 7.08643 13.6479 7.08643 16.6483C7.08643 19.6486 11.3009 22.0809 16.4998 22.0809Z"
            fill="#2F5091" />
        <path
            d="M25.913 16.6483C25.913 19.6488 21.6987 22.0812 16.5 22.0812C11.3012 22.0812 7.08691 19.6488 7.08691 16.6483C7.08691 16.421 7.11123 16.197 7.15779 15.9777C8.27648 18.5632 11.7884 20.2554 15.7753 19.9133C20.4323 19.5132 23.9773 16.4905 23.7087 13.1547C25.0845 14.0986 25.913 15.3185 25.913 16.6483Z"
            fill="#153D8A" />
        <path
            d="M13.5803 18.2565C13.5662 18.2565 13.5521 18.2561 13.5379 18.2553C13.107 18.2323 12.7764 17.8643 12.7996 17.4334C12.8182 17.0839 12.5718 16.7745 12.2263 16.7135C11.8811 16.6529 11.5434 16.8591 11.4414 17.194C11.3158 17.6068 10.8793 17.8395 10.4664 17.7138C10.0537 17.5881 9.821 17.1515 9.94669 16.7388C10.2785 15.6491 11.3753 14.9767 12.4977 15.1748C13.6202 15.3727 14.4207 16.3796 14.3598 17.517C14.3374 17.9336 13.9926 18.2565 13.5803 18.2565Z"
            fill="#E6E6E6" />
        <path
            d="M19.4199 18.2565C19.0075 18.2565 18.6628 17.9336 18.6405 17.517C18.5795 16.3796 19.3801 15.3727 20.5026 15.1748C21.6249 14.9766 22.7217 15.6492 23.0536 16.7388C23.1793 17.1515 22.9466 17.588 22.5338 17.7138C22.1209 17.8393 21.6846 17.6068 21.5588 17.194C21.4569 16.8592 21.1193 16.6525 20.774 16.7135C20.4285 16.7745 20.182 17.084 20.2007 17.4335C20.2238 17.8643 19.8932 18.2323 19.4624 18.2553C19.4481 18.2561 19.4339 18.2565 19.4199 18.2565Z"
            fill="#E6E6E6" />
        <path
            d="M21.8354 7.40732C21.2649 8.61582 19.0924 9.51501 16.4997 9.51501C13.9071 9.51501 11.7346 8.61576 11.1641 7.40732C12.5994 7.12726 14.3544 6.9762 16.4997 6.9762C18.6451 6.9762 20.4001 7.12726 21.8354 7.40732Z"
            fill="#C6C6C6" />
    </g>
    <defs>
        <filter id="filter0_d_264_742" x="0.750488" y="6.9762" width="31.499" height="26.0475"
            filterUnits="userSpaceOnUse" color-interpolation-filters="sRGB">
            <feFlood flood-opacity="0" result="BackgroundImageFix" />
            <feColorMatrix in="SourceAlpha" type="matrix"
                values="0 0 0 0 0 0 0 0 0 0 0 0 0 0 0 0 0 0 127 0" result="hardAlpha" />
            <feOffset dy="4" />
            <feGaussianBlur stdDeviation="2" />
            <feComposite in2="hardAlpha" operator="out" />
            <feColorMatrix type="matrix" values="0 0 0 0 0 0 0 0 0 0 0 0 0 0 0 0 0 0 0.25 0" />
            <feBlend mode="normal" in2="BackgroundImageFix" result="effect1_dropShadow_264_742" />
            <feBlend mode="normal" in="SourceGraphic" in2="effect1_dropShadow_264_742"
                result="shape" />
        </filter>
    </defs>
</svg>