<svg width="170" height="48" viewBox="0 0 170 48" fill="none" xmlns="http://www.w3.org/2000/svg">
<g clip-path="url(#clip0_21_501)">
<mask id="mask0_21_501" style="mask-type:luminance" maskUnits="userSpaceOnUse" x="0" y="0" width="49" height="48">
<path d="M48.0618 0H0V48H48.0618V0Z" fill="white"/>
</mask>
<g mask="url(#mask0_21_501)">
<path d="M45.2928 35.1912C47.0545 31.8596 48.0557 28.0649 48.0617 24.0367C48.0816 10.8125 37.2783 0.0033758 24.0371 7.94488e-07C10.7603 -0.0033742 -0.00337855 10.7465 7.95511e-07 24.0062C0.00338015 37.2303 10.8264 48.0197 24.0675 47.9999C28.1011 47.9939 31.9007 46.994 35.2365 45.2345L44.8511 46.5071C45.8485 46.6391 46.6992 45.7895 46.567 44.7934L45.2928 35.1912Z" fill="#153D8A"/>
<path d="M46.5674 44.7936C46.6998 45.7893 45.8484 46.6396 44.8515 46.5074L35.2363 45.2343C31.9011 46.9939 28.1012 47.9943 24.0676 47.9999C12.145 48.0177 2.18252 39.2718 0.31543 27.8755C3.89942 35.6014 11.7339 40.9602 20.8215 40.9602C33.2969 40.9602 43.4106 30.8596 43.4106 18.4002C43.4106 13.6461 41.9387 9.2352 39.4248 5.59863C44.7069 10.0161 48.0731 16.6489 48.0619 24.0364C48.0562 28.0649 47.0546 31.8599 45.2927 35.1908L46.5674 44.7936Z" fill="#274E99"/>
<path d="M2.63629 22.7999C3.78827 22.7999 4.76631 21.9644 4.95293 20.8292C5.60261 16.8768 7.46425 13.234 10.3559 10.3451C13.441 7.26247 17.3867 5.35118 21.6524 4.83228C22.8299 4.68903 23.7154 3.69172 23.7154 2.50709C23.7154 1.10337 22.4872 0.009587 21.092 0.179556C10.4956 1.46984 2.02848 9.64755 0.316745 20.0951C0.0842269 21.5146 1.19594 22.7999 2.63629 22.7999Z" fill="#274E99"/>
<path d="M44.8515 46.5077L37.9453 45.5933C40.538 44.817 44.6414 39.5318 45.2928 35.1914L46.5674 44.7939C46.6998 45.7896 45.8484 46.6399 44.8515 46.5077Z" fill="#153D8A"/>
<g filter="url(#filter0_d_21_501)">
<path d="M41.6773 24C41.6773 31.4753 40.6915 37.5352 24.0306 37.5352C8.96223 37.5352 6.71553 32.5784 6.42368 26.1007C6.3928 25.4161 6.38379 24.7146 6.38379 24C6.38379 18.0855 7.00099 13.057 15.5108 11.2151C17.7565 10.729 20.5519 10.4648 24.0306 10.4648C27.7324 10.4648 30.6604 10.764 32.9756 11.3114C41.081 13.2275 41.6773 18.1855 41.6773 24Z" fill="#E2E2E2"/>
<path d="M8.98353 23.7204C10.2962 23.7204 11.3888 22.7107 11.4889 21.4036C11.6148 19.7605 11.922 18.6046 12.6047 17.8862C12.9283 17.5459 13.5062 17.1181 14.5336 16.7182C15.6748 16.274 16.33 15.0771 16.0694 13.8819C16.0658 13.8656 16.0622 13.8492 16.0587 13.8329C15.7326 12.3402 14.1472 11.4801 12.721 12.0328C8.01497 13.8566 6.78067 17.1209 6.4769 21.022C6.3636 22.4778 7.52131 23.7204 8.98353 23.7204Z" fill="#EAF4F4"/>
<path d="M41.6777 23.9999C41.6777 31.4752 40.6917 37.5355 24.0306 37.5355C10.2647 37.5355 7.19915 33.3982 6.54956 27.7436C10.0275 31.4378 14.9647 33.7443 20.4421 33.7443C30.9093 33.7443 39.4066 25.3197 39.5059 14.8901C41.4608 17.2948 41.6777 20.491 41.6777 23.9999Z" fill="#C6C6C6"/>
<path d="M24.0306 33.1213C31.8389 33.1213 38.1688 29.4728 38.1688 24.9723C38.1688 20.4717 31.8389 16.8232 24.0306 16.8232C16.2222 16.8232 9.89233 20.4717 9.89233 24.9723C9.89233 29.4728 16.2222 33.1213 24.0306 33.1213Z" fill="#2F5091"/>
<path d="M38.1684 24.9725C38.1684 29.4732 31.8388 33.1218 24.0306 33.1218C16.2224 33.1218 9.89282 29.4732 9.89282 24.9725C9.89282 24.6314 9.92934 24.2954 9.99927 23.9664C11.6795 27.8448 16.9542 30.3831 22.9423 29.87C29.9367 29.2698 35.261 24.7357 34.8577 19.7319C36.9239 21.1478 38.1684 22.9777 38.1684 24.9725Z" fill="#153D8A"/>
<path d="M19.6456 27.3848C19.6245 27.3848 19.6033 27.3843 19.5819 27.383C18.9347 27.3484 18.4383 26.7965 18.473 26.1502C18.5011 25.626 18.1309 25.1618 17.612 25.0703C17.0935 24.9794 16.5863 25.2888 16.4332 25.7911C16.2444 26.4102 15.5888 26.7593 14.9688 26.5707C14.3489 26.3822 13.9994 25.7273 14.1882 25.1082C14.6865 23.4738 16.3339 22.4651 18.0196 22.7622C19.7055 23.0591 20.9079 24.5695 20.8164 26.2756C20.7828 26.9005 20.2649 27.3848 19.6456 27.3848Z" fill="#E6E6E6"/>
<path d="M28.416 27.3848C27.7967 27.3848 27.2789 26.9005 27.2454 26.2756C27.1538 24.5695 28.3562 23.0591 30.0422 22.7622C31.7278 22.465 33.3751 23.4739 33.8736 25.1082C34.0624 25.7273 33.7129 26.3821 33.093 26.5707C32.4728 26.7591 31.8174 26.4102 31.6286 25.7911C31.4755 25.2889 30.9684 24.9787 30.4497 25.0703C29.9308 25.1617 29.5606 25.626 29.5888 26.1502C29.6234 26.7966 29.1269 27.3486 28.4799 27.3831C28.4584 27.3842 28.4371 27.3848 28.416 27.3848Z" fill="#E6E6E6"/>
<path d="M32.0445 11.111C31.1877 12.9238 27.9246 14.2726 24.0307 14.2726C20.1367 14.2726 16.8737 12.9237 16.0168 11.111C18.1727 10.6909 20.8086 10.4644 24.0307 10.4644C27.2528 10.4644 29.8887 10.6909 32.0445 11.111Z" fill="#C6C6C6"/>
</g>
</g>
<path d="M59.7207 21.75V8.625H68.507V10.6313H61.8797V14.0438H67.925V16.0687H61.8797V19.7438H68.7135V21.75H59.7207ZM73.9879 22.05C72.9866 22.05 72.173 21.8688 71.5473 21.5062C70.9215 21.1312 70.4646 20.6063 70.1768 19.9313C69.9014 19.2563 69.7637 18.475 69.7637 17.5875H71.9228C71.9228 18.4 72.0979 18.9938 72.4485 19.3688C72.7989 19.7438 73.3121 19.9313 73.9879 19.9313C74.6638 19.9313 75.1707 19.7438 75.5086 19.3688C75.8466 18.9938 76.0155 18.4 76.0155 17.5875V8.625H78.2121V17.5875C78.2121 18.475 78.0681 19.2563 77.7803 19.9313C77.4924 20.6063 77.0355 21.1312 76.4098 21.5062C75.7964 21.8688 74.9892 22.05 73.9879 22.05ZM79.5498 21.75L84.5625 8.625H86.4774L91.4901 21.75H89.0307L88.0169 18.8625H82.9667L81.9529 21.75H79.5498ZM83.6801 16.8563H87.3223L85.52 11.7375L83.6801 16.8563ZM93.0155 21.75V8.625H97.2399C98.5541 8.625 99.6862 8.86875 100.638 9.35625C101.601 9.84375 102.34 10.575 102.853 11.55C103.379 12.525 103.642 13.7375 103.642 15.1875C103.642 16.625 103.379 17.8313 102.853 18.8063C102.34 19.7813 101.601 20.5188 100.638 21.0187C99.6862 21.5062 98.5541 21.75 97.2399 21.75H93.0155ZM95.1748 19.7438H97.0709C98.4227 19.7438 99.474 19.3563 100.225 18.5812C100.988 17.7937 101.37 16.6625 101.37 15.1875C101.37 13.7 100.988 12.5688 100.225 11.7938C99.474 11.0187 98.4227 10.6313 97.0709 10.6313H95.1748V19.7438ZM103.934 21.75L108.947 8.625H110.862L115.874 21.75H113.415L112.401 18.8625H107.351L106.337 21.75H103.934ZM108.064 16.8563H111.706L109.904 11.7375L108.064 16.8563Z" fill="#C6C6C6"/>
<path d="M62.1358 36.8317C61.4818 36.8317 60.8967 36.677 60.3804 36.3676C59.8641 36.0583 59.4579 35.6217 59.162 35.058C58.8728 34.4873 58.7283 33.817 58.7283 33.047C58.7283 32.2701 58.8728 31.5998 59.162 31.0361C59.4579 30.4654 59.8641 30.0254 60.3804 29.7161C60.8967 29.3999 61.4818 29.2417 62.1358 29.2417C62.7485 29.2417 63.2991 29.3792 63.7879 29.6542C64.2835 29.9292 64.6794 30.3142 64.9754 30.8092L63.7776 31.5001C63.6055 31.1976 63.3783 30.9639 63.0961 30.7989C62.8208 30.6339 62.5007 30.5514 62.1358 30.5514C61.7296 30.5514 61.3751 30.658 61.0722 30.8711C60.7762 31.0773 60.5456 31.3661 60.3804 31.7373C60.2152 32.1086 60.1326 32.5452 60.1326 33.047C60.1326 33.542 60.2152 33.9751 60.3804 34.3464C60.5456 34.7176 60.7762 35.0099 61.0722 35.2229C61.3751 35.4292 61.7296 35.5323 62.1358 35.5323C62.5007 35.5323 62.8208 35.4498 63.0961 35.2848C63.3783 35.113 63.6055 34.8792 63.7776 34.5836L64.9754 35.2745C64.6794 35.7627 64.2835 36.1442 63.7879 36.4192C63.2991 36.6942 62.7485 36.8317 62.1358 36.8317ZM68.743 36.7904C67.8206 36.7904 67.1184 36.5567 66.6365 36.0892C66.1615 35.6148 65.924 34.8998 65.924 33.9442V29.4376H67.2767V33.872C67.2767 34.4564 67.4076 34.8723 67.6691 35.1198C67.9376 35.3673 68.2956 35.4911 68.743 35.4911C69.1905 35.4911 69.545 35.3673 69.8065 35.1198C70.0681 34.8723 70.1989 34.4564 70.1989 33.872V29.4376H71.5516V33.9442C71.5516 34.8998 71.3141 35.6148 70.8391 36.0892C70.3641 36.5567 69.6654 36.7904 68.743 36.7904ZM75.5385 36.8111C74.9189 36.8111 74.3476 36.677 73.8244 36.4089C73.3081 36.1339 72.8985 35.6699 72.5956 35.0167L73.7211 34.3979C73.9208 34.7554 74.1618 35.0339 74.4439 35.2333C74.7262 35.4327 75.1083 35.5323 75.5901 35.5323C76.0651 35.5323 76.3818 35.4533 76.5401 35.2951C76.6984 35.1301 76.7776 34.9136 76.7776 34.6454C76.7776 34.4736 76.7363 34.3258 76.6537 34.202C76.578 34.0783 76.4058 33.9614 76.1374 33.8514C75.8758 33.7345 75.4697 33.6107 74.9189 33.4801C74.2512 33.322 73.759 33.0676 73.4423 32.717C73.1257 32.3664 72.9673 31.9298 72.9673 31.4073C72.9673 30.9742 73.0706 30.5961 73.2771 30.2729C73.4836 29.9498 73.7728 29.6989 74.1445 29.5201C74.5232 29.3345 74.9672 29.2417 75.4765 29.2417C75.9446 29.2417 76.3577 29.3139 76.7156 29.4583C77.0736 29.6026 77.3765 29.7917 77.6243 30.0254C77.879 30.2592 78.0786 30.5136 78.2232 30.7886L77.1596 31.5826C77.0564 31.4176 76.9291 31.2561 76.7776 31.0979C76.633 30.9329 76.4541 30.7954 76.2406 30.6854C76.0272 30.5755 75.7656 30.5204 75.4559 30.5204C75.1324 30.5204 74.8673 30.5892 74.6608 30.7267C74.4612 30.8573 74.3613 31.0635 74.3613 31.3454C74.3613 31.4554 74.3889 31.5689 74.4439 31.6858C74.5059 31.7957 74.6436 31.9058 74.857 32.0158C75.0773 32.1257 75.4249 32.2392 75.8999 32.3561C76.7053 32.5485 77.287 32.8373 77.6449 33.2223C78.0098 33.6004 78.1922 34.0679 78.1922 34.6248C78.1922 35.3329 77.9513 35.8761 77.4694 36.2542C76.9944 36.6254 76.3508 36.8111 75.5385 36.8111ZM81.0311 36.6564V30.6751H78.904V29.4376H84.5006V30.6751H82.3838V36.6564H81.0311ZM88.404 36.8317C87.75 36.8317 87.1649 36.677 86.6486 36.3676C86.1323 36.0583 85.7262 35.6217 85.4302 35.058C85.1411 34.4873 84.9965 33.817 84.9965 33.047C84.9965 32.2701 85.1411 31.5998 85.4302 31.0361C85.7262 30.4654 86.1323 30.0254 86.6486 29.7161C87.1649 29.3999 87.75 29.2417 88.404 29.2417C89.058 29.2417 89.6396 29.3999 90.1491 29.7161C90.6654 30.0254 91.0681 30.4654 91.3572 31.0361C91.6532 31.5998 91.8012 32.2701 91.8012 33.047C91.8012 33.817 91.6532 34.4873 91.3572 35.058C91.0681 35.6217 90.6654 36.0583 90.1491 36.3676C89.6396 36.677 89.058 36.8317 88.404 36.8317ZM88.404 35.5323C88.817 35.5323 89.1716 35.4292 89.4676 35.2229C89.7705 35.0099 90.001 34.7176 90.1594 34.3464C90.3246 33.9751 90.4072 33.542 90.4072 33.047C90.4072 32.5452 90.3246 32.1086 90.1594 31.7373C90.001 31.3661 89.7705 31.0773 89.4676 30.8711C89.1716 30.658 88.817 30.5514 88.404 30.5514C87.9978 30.5514 87.6434 30.658 87.3405 30.8711C87.0445 31.0773 86.8139 31.3661 86.6486 31.7373C86.4834 32.1086 86.4008 32.5452 86.4008 33.047C86.4008 33.542 86.4834 33.9751 86.6486 34.3464C86.8139 34.7176 87.0445 35.0099 87.3405 35.2229C87.6434 35.4292 87.9978 35.5323 88.404 35.5323ZM92.8398 36.6564V29.4376H94.1823L96.1442 32.8408L98.0855 29.4376H99.4382V36.6564H98.0752V31.7579L96.5263 34.563H95.7415L94.1927 31.7579V36.6564H92.8398ZM100.816 36.6564V29.4376H105.742V30.6751H102.159V32.3561H105.432V33.5936H102.159V35.4189H105.855V36.6564H100.816ZM106.887 36.6564V29.4376H110.232C110.687 29.4376 111.079 29.5064 111.409 29.6439C111.746 29.7814 112.005 30.0048 112.184 30.3142C112.37 30.6236 112.463 31.0395 112.463 31.562C112.463 32.2082 112.321 32.6964 112.039 33.0264C111.763 33.3495 111.381 33.5558 110.893 33.6451L112.359 36.6564H110.8L109.52 33.707H108.229V36.6564H106.887ZM108.229 32.4592H110.046C110.356 32.4592 110.6 32.3905 110.78 32.2529C110.958 32.1154 111.048 31.8852 111.048 31.562C111.048 31.2458 110.958 31.0189 110.78 30.8814C110.6 30.7439 110.356 30.6751 110.046 30.6751H108.229V32.4592ZM115.787 36.6564L118.502 29.4376H119.69L122.406 36.6564H120.888L120.402 35.2229H117.749L117.263 36.6564H115.787ZM118.182 33.9854H119.979L119.091 31.3661L118.182 33.9854ZM125.867 36.8111C125.247 36.8111 124.675 36.677 124.152 36.4089C123.636 36.1339 123.227 35.6699 122.924 35.0167L124.049 34.3979C124.249 34.7554 124.489 35.0339 124.772 35.2333C125.055 35.4327 125.437 35.5323 125.918 35.5323C126.393 35.5323 126.709 35.4533 126.868 35.2951C127.027 35.1301 127.106 34.9136 127.106 34.6454C127.106 34.4736 127.064 34.3258 126.982 34.202C126.906 34.0783 126.734 33.9614 126.465 33.8514C126.204 33.7345 125.798 33.6107 125.247 33.4801C124.58 33.322 124.087 33.0676 123.77 32.717C123.454 32.3664 123.295 31.9298 123.295 31.4073C123.295 30.9742 123.399 30.5961 123.605 30.2729C123.812 29.9498 124.101 29.6989 124.473 29.5201C124.851 29.3345 125.295 29.2417 125.805 29.2417C126.273 29.2417 126.686 29.3139 127.044 29.4583C127.401 29.6026 127.705 29.7917 127.952 30.0254C128.207 30.2592 128.407 30.5136 128.551 30.7886L127.488 31.5826C127.384 31.4176 127.257 31.2561 127.106 31.0979C126.961 30.9329 126.782 30.7954 126.569 30.6854C126.356 30.5755 126.094 30.5204 125.784 30.5204C125.46 30.5204 125.195 30.5892 124.989 30.7267C124.789 30.8573 124.689 31.0635 124.689 31.3454C124.689 31.4554 124.717 31.5689 124.772 31.6858C124.834 31.7957 124.972 31.9058 125.185 32.0158C125.406 32.1257 125.753 32.2392 126.228 32.3561C127.033 32.5485 127.615 32.8373 127.973 33.2223C128.338 33.6004 128.52 34.0679 128.52 34.6248C128.52 35.3329 128.279 35.8761 127.797 36.2542C127.322 36.6254 126.679 36.8111 125.867 36.8111ZM132.35 36.8111C131.731 36.8111 131.16 36.677 130.636 36.4089C130.12 36.1339 129.711 35.6699 129.407 35.0167L130.533 34.3979C130.733 34.7554 130.974 35.0339 131.256 35.2333C131.538 35.4327 131.92 35.5323 132.402 35.5323C132.877 35.5323 133.194 35.4533 133.352 35.2951C133.51 35.1301 133.589 34.9136 133.589 34.6454C133.589 34.4736 133.548 34.3258 133.465 34.202C133.39 34.0783 133.218 33.9614 132.949 33.8514C132.688 33.7345 132.282 33.6107 131.731 33.4801C131.063 33.322 130.571 33.0676 130.254 32.717C129.938 32.3664 129.779 31.9298 129.779 31.4073C129.779 30.9742 129.882 30.5961 130.089 30.2729C130.295 29.9498 130.584 29.6989 130.956 29.5201C131.335 29.3345 131.779 29.2417 132.288 29.2417C132.757 29.2417 133.17 29.3139 133.527 29.4583C133.886 29.6026 134.188 29.7917 134.436 30.0254C134.691 30.2592 134.89 30.5136 135.035 30.7886L133.971 31.5826C133.868 31.4176 133.741 31.2561 133.589 31.0979C133.445 30.9329 133.266 30.7954 133.052 30.6854C132.839 30.5755 132.577 30.5204 132.268 30.5204C131.945 30.5204 131.679 30.5892 131.472 30.7267C131.273 30.8573 131.173 31.0635 131.173 31.3454C131.173 31.4554 131.201 31.5689 131.256 31.6858C131.318 31.7957 131.456 31.9058 131.669 32.0158C131.889 32.1257 132.237 32.2392 132.712 32.3561C133.517 32.5485 134.099 32.8373 134.457 33.2223C134.822 33.6004 135.004 34.0679 135.004 34.6248C135.004 35.3329 134.764 35.8761 134.281 36.2542C133.806 36.6254 133.163 36.8111 132.35 36.8111ZM136.15 36.6564V29.4376H137.492V36.6564H136.15ZM141.557 36.8111C140.937 36.8111 140.366 36.677 139.843 36.4089C139.327 36.1339 138.917 35.6699 138.614 35.0167L139.74 34.3979C139.94 34.7554 140.18 35.0339 140.463 35.2333C140.745 35.4327 141.127 35.5323 141.609 35.5323C142.084 35.5323 142.4 35.4533 142.559 35.2951C142.717 35.1301 142.796 34.9136 142.796 34.6454C142.796 34.4736 142.755 34.3258 142.672 34.202C142.596 34.0783 142.424 33.9614 142.156 33.8514C141.894 33.7345 141.489 33.6107 140.937 33.4801C140.27 33.322 139.777 33.0676 139.461 32.717C139.145 32.3664 138.986 31.9298 138.986 31.4073C138.986 30.9742 139.089 30.5961 139.296 30.2729C139.502 29.9498 139.791 29.6989 140.163 29.5201C140.541 29.3345 140.985 29.2417 141.495 29.2417C141.963 29.2417 142.377 29.3139 142.734 29.4583C143.092 29.6026 143.395 29.7917 143.643 30.0254C143.897 30.2592 144.097 30.5136 144.242 30.7886L143.178 31.5826C143.075 31.4176 142.947 31.2561 142.796 31.0979C142.652 30.9329 142.472 30.7954 142.259 30.6854C142.046 30.5755 141.784 30.5204 141.474 30.5204C141.151 30.5204 140.886 30.5892 140.679 30.7267C140.479 30.8573 140.38 31.0635 140.38 31.3454C140.38 31.4554 140.407 31.5689 140.463 31.6858C140.524 31.7957 140.662 31.9058 140.876 32.0158C141.096 32.1257 141.443 32.2392 141.918 32.3561C142.724 32.5485 143.306 32.8373 143.663 33.2223C144.029 33.6004 144.211 34.0679 144.211 34.6248C144.211 35.3329 143.97 35.8761 143.488 36.2542C143.013 36.6254 142.369 36.8111 141.557 36.8111ZM147.049 36.6564V30.6751H144.922V29.4376H150.519V30.6751H148.402V36.6564H147.049ZM149.829 36.6564L152.545 29.4376H153.732L156.448 36.6564H154.93L154.445 35.2229H151.791L151.306 36.6564H149.829ZM152.225 33.9854H154.021L153.133 31.3661L152.225 33.9854ZM157.225 36.6564V29.4376H158.567L161.799 34.3154V29.4376H163.152V36.6564H161.872L158.567 31.6136V36.6564H157.225ZM166.219 36.6564V30.6751H164.092V29.4376H169.688V30.6751H167.571V36.6564H166.219Z" fill="#153D8A"/>
</g>
<defs>
<filter id="filter0_d_21_501" x="2.38379" y="10.4644" width="43.2939" height="35.0713" filterUnits="userSpaceOnUse" color-interpolation-filters="sRGB">
<feFlood flood-opacity="0" result="BackgroundImageFix"/>
<feColorMatrix in="SourceAlpha" type="matrix" values="0 0 0 0 0 0 0 0 0 0 0 0 0 0 0 0 0 0 127 0" result="hardAlpha"/>
<feOffset dy="4"/>
<feGaussianBlur stdDeviation="2"/>
<feComposite in2="hardAlpha" operator="out"/>
<feColorMatrix type="matrix" values="0 0 0 0 0 0 0 0 0 0 0 0 0 0 0 0 0 0 0.25 0"/>
<feBlend mode="normal" in2="BackgroundImageFix" result="effect1_dropShadow_21_501"/>
<feBlend mode="normal" in="SourceGraphic" in2="effect1_dropShadow_21_501" result="shape"/>
</filter>
<clipPath id="clip0_21_501">
<rect width="170" height="48" fill="white"/>
</clipPath>
</defs>
</svg>
