<svg width="20" height="20" viewBox="0 0 20 20" fill="none" xmlns="http://www.w3.org/2000/svg">
<mask id="path-1-inside-1_21_536" fill="white">
<path d="M19.125 11.7498C19.0593 11.7991 18.9846 11.8349 18.9051 11.8553C18.8256 11.8756 18.7429 11.8801 18.6616 11.8685C18.5804 11.8569 18.5022 11.8294 18.4316 11.7876C18.3609 11.7458 18.2992 11.6905 18.25 11.6248C17.8733 11.1185 17.3829 10.7076 16.8185 10.4254C16.254 10.1431 15.6311 9.99737 15 9.99981C14.8342 9.99981 14.6753 9.93397 14.558 9.81676C14.4408 9.69955 14.375 9.54057 14.375 9.37481C14.375 9.20905 14.4408 9.05008 14.558 8.93287C14.6753 8.81566 14.8342 8.74981 15 8.74981C15.3507 8.74978 15.6943 8.65141 15.9919 8.46586C16.2895 8.28032 16.529 8.01504 16.6834 7.70016C16.8378 7.38528 16.9007 7.03342 16.8651 6.68455C16.8296 6.33568 16.6969 6.00378 16.4821 5.72655C16.2673 5.44932 15.9791 5.23788 15.6502 5.11623C15.3213 4.99459 14.9649 4.96762 14.6214 5.03839C14.278 5.10917 13.9612 5.27484 13.7072 5.5166C13.4532 5.75836 13.272 6.06652 13.1844 6.40606C13.1638 6.48558 13.1279 6.56027 13.0785 6.62587C13.0291 6.69148 12.9673 6.74672 12.8965 6.78843C12.8258 6.83014 12.7476 6.85752 12.6662 6.86899C12.5849 6.88046 12.5022 6.8758 12.4226 6.85528C12.3431 6.83476 12.2684 6.79878 12.2028 6.7494C12.1372 6.70001 12.082 6.63819 12.0403 6.56746C11.9986 6.49673 11.9712 6.41847 11.9597 6.33716C11.9483 6.25585 11.9529 6.17308 11.9734 6.09356C12.0951 5.62272 12.325 5.18677 12.6448 4.8204C12.9646 4.45404 13.3656 4.16737 13.8157 3.98321C14.2658 3.79905 14.7526 3.72249 15.2375 3.7596C15.7224 3.79672 16.192 3.94649 16.6088 4.19701C17.0256 4.44753 17.3782 4.79187 17.6386 5.20264C17.8989 5.61341 18.0598 6.07927 18.1084 6.56316C18.157 7.04704 18.092 7.53559 17.9186 7.98993C17.7451 8.44427 17.468 8.85187 17.1094 9.18028C17.9592 9.54825 18.698 10.1322 19.2523 10.874C19.3016 10.9399 19.3374 11.0148 19.3576 11.0944C19.3779 11.1741 19.3822 11.257 19.3704 11.3383C19.3585 11.4197 19.3308 11.4979 19.2887 11.5685C19.2466 11.6391 19.1909 11.7007 19.125 11.7498ZM14.9156 16.5623C14.9593 16.6335 14.9882 16.7126 15.0007 16.7951C15.0133 16.8777 15.0092 16.9618 14.9886 17.0427C14.9681 17.1236 14.9316 17.1996 14.8812 17.2662C14.8309 17.3327 14.7677 17.3885 14.6954 17.4303C14.6232 17.472 14.5433 17.4989 14.4605 17.5092C14.3776 17.5196 14.2936 17.5133 14.2133 17.4906C14.1329 17.468 14.0579 17.4295 13.9927 17.3774C13.9275 17.3253 13.8734 17.2607 13.8336 17.1873C13.4398 16.5208 12.8791 15.9685 12.2068 15.5848C11.5345 15.2011 10.7737 14.9993 9.9996 14.9993C9.22549 14.9993 8.46475 15.2011 7.79242 15.5848C7.12008 15.9685 6.55938 16.5208 6.16562 17.1873C6.12655 17.262 6.07277 17.328 6.00752 17.3814C5.94228 17.4348 5.86691 17.4744 5.78595 17.4979C5.705 17.5213 5.62013 17.5282 5.53645 17.5181C5.45277 17.5079 5.37202 17.4809 5.29904 17.4387C5.22606 17.3965 5.16237 17.34 5.1118 17.2726C5.06122 17.2051 5.02481 17.1282 5.00476 17.0463C4.98471 16.9644 4.98142 16.8793 4.9951 16.7962C5.00878 16.713 5.03915 16.6334 5.08437 16.5623C5.6903 15.5212 6.61421 14.7019 7.7203 14.2248C7.0979 13.7483 6.64048 13.0887 6.41234 12.3387C6.18419 11.5888 6.19679 10.7862 6.44836 10.0438C6.69994 9.30139 7.17784 8.65648 7.81489 8.19972C8.45194 7.74296 9.21611 7.49731 9.99999 7.49731C10.7839 7.49731 11.548 7.74296 12.1851 8.19972C12.8221 8.65648 13.3 9.30139 13.5516 10.0438C13.8032 10.7862 13.8158 11.5888 13.5876 12.3387C13.3595 13.0887 12.9021 13.7483 12.2797 14.2248C13.3858 14.7019 14.3097 15.5212 14.9156 16.5623ZM9.99999 13.7498C10.4944 13.7498 10.9778 13.6032 11.3889 13.3285C11.8 13.0538 12.1205 12.6633 12.3097 12.2065C12.4989 11.7497 12.5484 11.247 12.452 10.7621C12.3555 10.2771 12.1174 9.83168 11.7678 9.48205C11.4181 9.13242 10.9727 8.89431 10.4877 8.79785C10.0028 8.70139 9.5001 8.7509 9.04328 8.94012C8.58647 9.12933 8.19602 9.44977 7.92132 9.86089C7.64662 10.272 7.49999 10.7554 7.49999 11.2498C7.49999 11.9129 7.76338 12.5487 8.23223 13.0176C8.70107 13.4864 9.33695 13.7498 9.99999 13.7498ZM5.62499 9.37481C5.62499 9.20905 5.55914 9.05008 5.44193 8.93287C5.32472 8.81566 5.16575 8.74981 4.99999 8.74981C4.64931 8.74978 4.30567 8.65141 4.00809 8.46586C3.71052 8.28032 3.47094 8.01504 3.31658 7.70016C3.16222 7.38528 3.09925 7.03342 3.13484 6.68455C3.17042 6.33568 3.30313 6.00378 3.51789 5.72655C3.73265 5.44932 4.02085 5.23788 4.34976 5.11623C4.67866 4.99459 5.03509 4.96762 5.37856 5.03839C5.72203 5.10917 6.03876 5.27484 6.29279 5.5166C6.54681 5.75836 6.72795 6.06652 6.81562 6.40606C6.85706 6.56664 6.96059 6.70419 7.10344 6.78843C7.24629 6.87268 7.41676 6.89672 7.57734 6.85528C7.73792 6.81384 7.87546 6.71031 7.9597 6.56746C8.04395 6.42461 8.06799 6.25414 8.02655 6.09356C7.90487 5.62272 7.67497 5.18677 7.35516 4.8204C7.03534 4.45404 6.63443 4.16737 6.18433 3.98321C5.73423 3.79905 5.24736 3.72249 4.76246 3.7596C4.27756 3.79672 3.80801 3.94649 3.39119 4.19701C2.97436 4.44753 2.62175 4.79187 2.36142 5.20264C2.10108 5.61341 1.94021 6.07927 1.89161 6.56316C1.843 7.04704 1.908 7.53559 2.08143 7.98993C2.25486 8.44427 2.53194 8.85187 2.89062 9.18028C2.04162 9.5486 1.30368 10.1325 0.749993 10.874C0.650433 11.0066 0.607629 11.1734 0.630998 11.3375C0.654367 11.5017 0.741994 11.6499 0.874602 11.7494C1.00721 11.849 1.17394 11.8918 1.3381 11.8684C1.50227 11.845 1.65043 11.7574 1.74999 11.6248C2.1267 11.1185 2.61703 10.7076 3.18152 10.4254C3.74601 10.1431 4.36888 9.99737 4.99999 9.99981C5.16575 9.99981 5.32472 9.93397 5.44193 9.81676C5.55914 9.69955 5.62499 9.54057 5.62499 9.37481Z"/>
</mask>
<path d="M19.125 11.7498C19.0593 11.7991 18.9846 11.8349 18.9051 11.8553C18.8256 11.8756 18.7429 11.8801 18.6616 11.8685C18.5804 11.8569 18.5022 11.8294 18.4316 11.7876C18.3609 11.7458 18.2992 11.6905 18.25 11.6248C17.8733 11.1185 17.3829 10.7076 16.8185 10.4254C16.254 10.1431 15.6311 9.99737 15 9.99981C14.8342 9.99981 14.6753 9.93397 14.558 9.81676C14.4408 9.69955 14.375 9.54057 14.375 9.37481C14.375 9.20905 14.4408 9.05008 14.558 8.93287C14.6753 8.81566 14.8342 8.74981 15 8.74981C15.3507 8.74978 15.6943 8.65141 15.9919 8.46586C16.2895 8.28032 16.529 8.01504 16.6834 7.70016C16.8378 7.38528 16.9007 7.03342 16.8651 6.68455C16.8296 6.33568 16.6969 6.00378 16.4821 5.72655C16.2673 5.44932 15.9791 5.23788 15.6502 5.11623C15.3213 4.99459 14.9649 4.96762 14.6214 5.03839C14.278 5.10917 13.9612 5.27484 13.7072 5.5166C13.4532 5.75836 13.272 6.06652 13.1844 6.40606C13.1638 6.48558 13.1279 6.56027 13.0785 6.62587C13.0291 6.69148 12.9673 6.74672 12.8965 6.78843C12.8258 6.83014 12.7476 6.85752 12.6662 6.86899C12.5849 6.88046 12.5022 6.8758 12.4226 6.85528C12.3431 6.83476 12.2684 6.79878 12.2028 6.7494C12.1372 6.70001 12.082 6.63819 12.0403 6.56746C11.9986 6.49673 11.9712 6.41847 11.9597 6.33716C11.9483 6.25585 11.9529 6.17308 11.9734 6.09356C12.0951 5.62272 12.325 5.18677 12.6448 4.8204C12.9646 4.45404 13.3656 4.16737 13.8157 3.98321C14.2658 3.79905 14.7526 3.72249 15.2375 3.7596C15.7224 3.79672 16.192 3.94649 16.6088 4.19701C17.0256 4.44753 17.3782 4.79187 17.6386 5.20264C17.8989 5.61341 18.0598 6.07927 18.1084 6.56316C18.157 7.04704 18.092 7.53559 17.9186 7.98993C17.7451 8.44427 17.468 8.85187 17.1094 9.18028C17.9592 9.54825 18.698 10.1322 19.2523 10.874C19.3016 10.9399 19.3374 11.0148 19.3576 11.0944C19.3779 11.1741 19.3822 11.257 19.3704 11.3383C19.3585 11.4197 19.3308 11.4979 19.2887 11.5685C19.2466 11.6391 19.1909 11.7007 19.125 11.7498ZM14.9156 16.5623C14.9593 16.6335 14.9882 16.7126 15.0007 16.7951C15.0133 16.8777 15.0092 16.9618 14.9886 17.0427C14.9681 17.1236 14.9316 17.1996 14.8812 17.2662C14.8309 17.3327 14.7677 17.3885 14.6954 17.4303C14.6232 17.472 14.5433 17.4989 14.4605 17.5092C14.3776 17.5196 14.2936 17.5133 14.2133 17.4906C14.1329 17.468 14.0579 17.4295 13.9927 17.3774C13.9275 17.3253 13.8734 17.2607 13.8336 17.1873C13.4398 16.5208 12.8791 15.9685 12.2068 15.5848C11.5345 15.2011 10.7737 14.9993 9.9996 14.9993C9.22549 14.9993 8.46475 15.2011 7.79242 15.5848C7.12008 15.9685 6.55938 16.5208 6.16562 17.1873C6.12655 17.262 6.07277 17.328 6.00752 17.3814C5.94228 17.4348 5.86691 17.4744 5.78595 17.4979C5.705 17.5213 5.62013 17.5282 5.53645 17.5181C5.45277 17.5079 5.37202 17.4809 5.29904 17.4387C5.22606 17.3965 5.16237 17.34 5.1118 17.2726C5.06122 17.2051 5.02481 17.1282 5.00476 17.0463C4.98471 16.9644 4.98142 16.8793 4.9951 16.7962C5.00878 16.713 5.03915 16.6334 5.08437 16.5623C5.6903 15.5212 6.61421 14.7019 7.7203 14.2248C7.0979 13.7483 6.64048 13.0887 6.41234 12.3387C6.18419 11.5888 6.19679 10.7862 6.44836 10.0438C6.69994 9.30139 7.17784 8.65648 7.81489 8.19972C8.45194 7.74296 9.21611 7.49731 9.99999 7.49731C10.7839 7.49731 11.548 7.74296 12.1851 8.19972C12.8221 8.65648 13.3 9.30139 13.5516 10.0438C13.8032 10.7862 13.8158 11.5888 13.5876 12.3387C13.3595 13.0887 12.9021 13.7483 12.2797 14.2248C13.3858 14.7019 14.3097 15.5212 14.9156 16.5623ZM9.99999 13.7498C10.4944 13.7498 10.9778 13.6032 11.3889 13.3285C11.8 13.0538 12.1205 12.6633 12.3097 12.2065C12.4989 11.7497 12.5484 11.247 12.452 10.7621C12.3555 10.2771 12.1174 9.83168 11.7678 9.48205C11.4181 9.13242 10.9727 8.89431 10.4877 8.79785C10.0028 8.70139 9.5001 8.7509 9.04328 8.94012C8.58647 9.12933 8.19602 9.44977 7.92132 9.86089C7.64662 10.272 7.49999 10.7554 7.49999 11.2498C7.49999 11.9129 7.76338 12.5487 8.23223 13.0176C8.70107 13.4864 9.33695 13.7498 9.99999 13.7498ZM5.62499 9.37481C5.62499 9.20905 5.55914 9.05008 5.44193 8.93287C5.32472 8.81566 5.16575 8.74981 4.99999 8.74981C4.64931 8.74978 4.30567 8.65141 4.00809 8.46586C3.71052 8.28032 3.47094 8.01504 3.31658 7.70016C3.16222 7.38528 3.09925 7.03342 3.13484 6.68455C3.17042 6.33568 3.30313 6.00378 3.51789 5.72655C3.73265 5.44932 4.02085 5.23788 4.34976 5.11623C4.67866 4.99459 5.03509 4.96762 5.37856 5.03839C5.72203 5.10917 6.03876 5.27484 6.29279 5.5166C6.54681 5.75836 6.72795 6.06652 6.81562 6.40606C6.85706 6.56664 6.96059 6.70419 7.10344 6.78843C7.24629 6.87268 7.41676 6.89672 7.57734 6.85528C7.73792 6.81384 7.87546 6.71031 7.9597 6.56746C8.04395 6.42461 8.06799 6.25414 8.02655 6.09356C7.90487 5.62272 7.67497 5.18677 7.35516 4.8204C7.03534 4.45404 6.63443 4.16737 6.18433 3.98321C5.73423 3.79905 5.24736 3.72249 4.76246 3.7596C4.27756 3.79672 3.80801 3.94649 3.39119 4.19701C2.97436 4.44753 2.62175 4.79187 2.36142 5.20264C2.10108 5.61341 1.94021 6.07927 1.89161 6.56316C1.843 7.04704 1.908 7.53559 2.08143 7.98993C2.25486 8.44427 2.53194 8.85187 2.89062 9.18028C2.04162 9.5486 1.30368 10.1325 0.749993 10.874C0.650433 11.0066 0.607629 11.1734 0.630998 11.3375C0.654367 11.5017 0.741994 11.6499 0.874602 11.7494C1.00721 11.849 1.17394 11.8918 1.3381 11.8684C1.50227 11.845 1.65043 11.7574 1.74999 11.6248C2.1267 11.1185 2.61703 10.7076 3.18152 10.4254C3.74601 10.1431 4.36888 9.99737 4.99999 9.99981C5.16575 9.99981 5.32472 9.93397 5.44193 9.81676C5.55914 9.69955 5.62499 9.54057 5.62499 9.37481Z" fill="white" stroke="white" stroke-width="1.6" mask="url(#path-1-inside-1_21_536)"/>
</svg>
