<svg width="23" height="23" viewBox="0 0 23 23" fill="none" xmlns="http://www.w3.org/2000/svg">
<path d="M7.90071 14.3604L7.9 14.3677V14.375C7.9 14.7927 7.73406 15.1933 7.43869 15.4887C7.14332 15.7841 6.74272 15.95 6.325 15.95C5.90728 15.95 5.50668 15.7841 5.21131 15.4887C4.91594 15.1933 4.75 14.7927 4.75 14.375C4.75 13.9573 4.91594 13.5567 5.21131 13.2613C5.50668 12.9659 5.90728 12.8 6.325 12.8H6.38713L6.43107 12.7561L9.88107 9.30607L9.925 9.26213V9.2C9.925 8.78228 10.0909 8.38168 10.3863 8.08631C10.6817 7.79094 11.0823 7.625 11.5 7.625C11.9177 7.625 12.3183 7.79094 12.6137 8.08631C12.9091 8.38168 13.075 8.78228 13.075 9.2V9.26138L13.118 9.30515L15.1075 11.3292L15.1516 11.374H15.2145H15.3985H15.4606L15.5046 11.3301L19.6561 7.17857L19.7062 7.12844L19.6993 7.05789C19.6946 7.01024 19.6946 6.96226 19.6993 6.91461L19.7 6.90732V6.9C19.7 6.58849 19.7924 6.28398 19.9654 6.02498C20.1385 5.76597 20.3845 5.5641 20.6723 5.44489C20.9601 5.32568 21.2767 5.29449 21.5823 5.35526C21.8878 5.41603 22.1684 5.56604 22.3887 5.78631C22.609 6.00657 22.759 6.28721 22.8197 6.59273C22.8805 6.89825 22.8493 7.21493 22.7301 7.50273C22.6109 7.79052 22.409 8.0365 22.15 8.20957C21.891 8.38263 21.5865 8.475 21.275 8.475H21.2125L21.1685 8.51937L16.9825 12.7399L16.939 12.7837V12.8455V12.9375C16.939 13.3552 16.7731 13.7558 16.4777 14.0512C16.1823 14.3466 15.7817 14.5125 15.364 14.5125C14.9463 14.5125 14.5457 14.3466 14.2503 14.0512C13.9549 13.7558 13.789 13.3552 13.789 12.9375V12.9373V12.9371V12.9369V12.9367V12.9365V12.9363V12.9361V12.9359V12.9357V12.9355V12.9352V12.935V12.9348V12.9346V12.9344V12.9342V12.934V12.9338V12.9336V12.9334V12.9331V12.9329V12.9327V12.9325V12.9323V12.9321V12.9319V12.9316V12.9314V12.9312V12.931V12.9308V12.9306V12.9303V12.9301V12.9299V12.9297V12.9295V12.9293V12.929V12.9288V12.9286V12.9284V12.9281V12.9279V12.9277V12.9275V12.9273V12.927V12.9268V12.9266V12.9264V12.9261V12.9259V12.9257V12.9255V12.9252V12.925V12.9248V12.9246V12.9243V12.9241V12.9239V12.9236V12.9234V12.9232V12.923V12.9227V12.9225V12.9223V12.922V12.9218V12.9216V12.9213V12.9211V12.9209V12.9206V12.9204V12.9202V12.92V12.9197V12.9195V12.9193V12.919V12.9188V12.9185V12.9183V12.9181V12.9178V12.9176V12.9174V12.9171V12.9169V12.9167V12.9164V12.9162V12.916V12.9157V12.9155V12.9153V12.915V12.9148V12.9145V12.9143V12.9141V12.9138V12.9136V12.9134V12.9131V12.9129V12.9126V12.9124V12.9122V12.9119V12.9117V12.9114V12.9112V12.911V12.9107V12.9105V12.9102V12.91V12.9098V12.9095V12.9093V12.909V12.9088V12.9086V12.9083V12.9081V12.9078V12.9076V12.9074V12.9071V12.9069V12.9066V12.9064V12.9062V12.9059V12.9057V12.9054V12.9052V12.905V12.9047V12.9045V12.9042V12.904V12.9038V12.9035V12.9033V12.903V12.9028V12.9026V12.9023V12.9021V12.9018V12.9016V12.9014V12.9011V12.9009V12.9006V12.9004V12.9002V12.8999V12.8997V12.8994V12.8992V12.899V12.8987V12.8985V12.8982V12.898V12.8978V12.8975V12.8973V12.897V12.8968V12.8966V12.8963V12.8961V12.8958V12.8956V12.8954V12.8951V12.8949V12.8947V12.8944V12.8942V12.8939V12.8937V12.8935V12.8932V12.893V12.8928V12.8925V12.8923V12.892V12.8918V12.8916V12.8913V12.8911V12.8909V12.8906V12.8904V12.8902V12.8899V12.8897V12.8895V12.8892V12.889V12.8888V12.8885V12.8883V12.8881V12.8878V12.8876V12.8874V12.8871V12.8869V12.8867V12.8864V12.8862V12.886V12.8858V12.8855V12.8853V12.8851V12.8848V12.8846V12.8844V12.8842V12.8839V12.8837V12.8835V12.8832V12.883V12.8828V12.8826V12.8823V12.8821V12.8819V12.8817V12.8814V12.8812V12.881V12.8808V12.8805V12.8803V12.8801V12.8799V12.8797V12.8794V12.8792V12.879V12.8788V12.8786V12.8783V12.8781V12.8779V12.8777V12.8775V12.8773V12.877V12.8768V12.8766V12.8764V12.8762V12.876V12.8757V12.8755V12.8753V12.8751V12.8749V12.8747V12.8745V12.8743V12.8741V12.8738V12.8736V12.8734V12.8732V12.873V12.8728V12.8726V12.8724V12.8722V12.872V12.8718V12.8716V12.8714V12.8712V12.871V12.8708V12.8706V12.8704V12.8702V12.87V12.8698V12.8696V12.8694V12.8692V12.869V12.8688V12.8686V12.8684V12.8682V12.868V12.8678V12.8676V12.8674V12.8672V12.867V12.8668V12.8666V12.8665V12.8663V12.8661V12.8659V12.8657V12.8655V12.8653V12.8651V12.865V12.8648V12.8646V12.8644V12.8642V12.864V12.8639V12.8637V12.8635V12.8633V12.8631V12.863V12.8628V12.8626V12.8624V12.8623V12.8621V12.8619V12.8617V12.8616V12.8614V12.8612V12.8611V12.8609V12.8607V12.8606V12.8604V12.8602V12.8601V12.8599V12.8597V12.8596V12.8594V12.8592V12.8591V12.8589V12.8588V12.8586V12.8584V12.8583V12.8581V12.858V12.8578V12.8577V12.8575V12.8574V12.8572V12.8571V12.8569V12.8568V12.8566V12.8565V12.8563V12.8562V12.856V12.8559V12.8557V12.8556V12.8554V12.8553V12.8552V12.855V12.8549V12.8547V12.8546V12.8545V12.8543V12.8542V12.8541V12.8539V12.8538V12.8537V12.8535V12.8534V12.8533V12.8532V12.853V12.8529V12.8528V12.8527V12.8525V12.8524V12.8523V12.8522V12.8521V12.8519V12.8518V12.8517V12.8516V12.8515V12.8514V12.8513V12.8511V12.851V12.8509V12.8508V12.8507V12.8506V12.8505V12.8504V12.8503V12.8502V12.8501V12.85V12.8499V12.8498V12.8497V12.8496V12.8495V12.8494V12.8493V12.8492V12.8491V12.849V12.8489V12.8489V12.8488V12.8487V12.8486V12.8485V12.8484V12.8484V12.8483V12.8482V12.8481V12.848V12.848V12.8479V12.8478V12.8477V12.8477V12.8476V12.8475V12.8475V12.8474V12.8473V12.8473V12.8472V12.8471V12.8471V12.847V12.8469V12.8469V12.8468V12.8468V12.8467V12.8467V12.8466V12.8466V12.8465V12.8465V12.8464V12.8464V12.8463V12.8463V12.8462V12.8462V12.8462V12.8461V12.8461V12.846V12.846V12.846V12.8459V12.8459V12.8459V12.8458V12.8458V12.8458V12.8458V12.8457V12.8457V12.8457V12.8457V12.8456V12.8456V12.8456V12.8456V12.8456V12.8456V12.8456V12.8455V12.8455V12.8455V12.8455V12.8455V12.7834L13.7451 12.7394L11.8936 10.8879L11.8496 10.844H11.7875H11.523H11.2585H11.1964L11.1524 10.8879L7.94393 14.0964L7.89381 14.1466L7.90071 14.2171C7.90538 14.2648 7.90538 14.3127 7.90071 14.3604ZM2.15 20.7V20.85H2.3H21.85C22.1152 20.85 22.3696 20.9554 22.5571 21.1429C22.7446 21.3304 22.85 21.5848 22.85 21.85C22.85 22.1152 22.7446 22.3696 22.5571 22.5571C22.3696 22.7446 22.1152 22.85 21.85 22.85H1.15C0.884783 22.85 0.630429 22.7446 0.442893 22.5571C0.255357 22.3696 0.15 22.1152 0.15 21.85V1.15C0.15 0.884783 0.255357 0.63043 0.442893 0.442893C0.63043 0.255357 0.884783 0.15 1.15 0.15C1.41522 0.15 1.66957 0.255357 1.85711 0.442893C2.04464 0.63043 2.15 0.884783 2.15 1.15V20.7Z" fill="#153D8A" stroke="white" stroke-width="0.3"/>
</svg>
