<svg xmlns="http://www.w3.org/2000/svg" width="170" height="48" viewBox="0 0 170 48" fill="none">
  <g clip-path="url(#clip0_54_448)">
    <mask id="mask0_54_448" style="mask-type:luminance" maskUnits="userSpaceOnUse" x="0" y="0" width="49" height="48">
      <path d="M48.0618 0H0V48H48.0618V0Z" fill="white"/>
    </mask>
    <g mask="url(#mask0_54_448)">
      <path d="M45.2928 35.1912C47.0545 31.8596 48.0557 28.0649 48.0617 24.0367C48.0816 10.8125 37.2783 0.0033758 24.0371 7.94488e-07C10.7603 -0.0033742 -0.00337855 10.7465 7.95511e-07 24.0062C0.00338015 37.2303 10.8264 48.0197 24.0675 47.9999C28.1011 47.9939 31.9007 46.994 35.2365 45.2345L44.8511 46.5071C45.8485 46.6391 46.6992 45.7895 46.567 44.7934L45.2928 35.1912Z" fill="#153D8A"/>
      <path d="M46.5674 44.7938C46.6998 45.7894 45.8484 46.6397 44.8515 46.5075L35.2363 45.2344C31.9011 46.9941 28.1012 47.9944 24.0676 48C12.145 48.0178 2.18252 39.2719 0.31543 27.8756C3.89942 35.6016 11.7339 40.9603 20.8215 40.9603C33.2969 40.9603 43.4106 30.8597 43.4106 18.4003C43.4106 13.6463 41.9387 9.23532 39.4248 5.59875C44.7069 10.0163 48.0731 16.6491 48.0619 24.0366C48.0562 28.065 47.0546 31.86 45.2927 35.1909L46.5674 44.7938Z" fill="#274E99"/>
      <path d="M2.63617 22.8C3.78815 22.8 4.76619 21.9645 4.95281 20.8293C5.60249 16.8769 7.46413 13.2341 10.3558 10.3453C13.4409 7.26259 17.3866 5.35131 21.6523 4.8324C22.8297 4.68915 23.7152 3.69184 23.7152 2.50721C23.7152 1.10349 22.4871 0.00970906 21.0919 0.179678C10.4955 1.46996 2.02836 9.64767 0.316623 20.0952C0.0841048 21.5147 1.19582 22.8 2.63617 22.8Z" fill="#274E99"/>
      <path d="M44.8515 46.5074L37.9453 45.593C40.538 44.8168 44.6414 39.5315 45.2928 35.1912L46.5674 44.7937C46.6998 45.7893 45.8484 46.6396 44.8515 46.5074Z" fill="#153D8A"/>
      <g filter="url(#filter0_d_54_448)">
        <path d="M41.6774 24C41.6774 31.4753 40.6916 37.5352 24.0307 37.5352C8.96235 37.5352 6.71565 32.5784 6.42381 26.1007C6.39292 25.4161 6.38391 24.7146 6.38391 24C6.38391 18.0855 7.00111 13.057 15.511 11.2151C17.7566 10.729 20.552 10.4648 24.0307 10.4648C27.7325 10.4648 30.6605 10.764 32.9757 11.3114C41.0811 13.2275 41.6774 18.1855 41.6774 24Z" fill="#E2E2E2"/>
        <path d="M8.98353 23.7204C10.2962 23.7204 11.3888 22.7107 11.4889 21.4036C11.6148 19.7605 11.922 18.6046 12.6047 17.8862C12.9283 17.5459 13.5062 17.1181 14.5336 16.7182C15.6748 16.274 16.33 15.0771 16.0694 13.8819C16.0658 13.8656 16.0622 13.8492 16.0587 13.8329C15.7326 12.3402 14.1472 11.4801 12.721 12.0328C8.01497 13.8566 6.78067 17.1209 6.4769 21.022C6.3636 22.4778 7.52131 23.7204 8.98353 23.7204Z" fill="#EAF4F4"/>
        <path d="M41.6779 24C41.6779 31.4753 40.6919 37.5357 24.0308 37.5357C10.2649 37.5357 7.19939 33.3983 6.5498 27.7438C10.0277 31.4379 14.9649 33.7444 20.4423 33.7444C30.9096 33.7444 39.4068 25.3199 39.5061 14.8903C41.461 17.2949 41.6779 20.4912 41.6779 24Z" fill="#C6C6C6"/>
        <path d="M24.0308 33.1214C31.8392 33.1214 38.1691 29.473 38.1691 24.9724C38.1691 20.4718 31.8392 16.8234 24.0308 16.8234C16.2225 16.8234 9.89258 20.4718 9.89258 24.9724C9.89258 29.473 16.2225 33.1214 24.0308 33.1214Z" fill="#2F5091"/>
        <path d="M38.1685 24.9726C38.1685 29.4733 31.8389 33.1219 24.0307 33.1219C16.2226 33.1219 9.89294 29.4733 9.89294 24.9726C9.89294 24.6315 9.92946 24.2955 9.99939 23.9666C11.6796 27.8449 16.9543 30.3832 22.9424 29.8701C29.9368 29.2699 35.2611 24.7358 34.8578 19.7321C36.9241 21.148 38.1685 22.9778 38.1685 24.9726Z" fill="#153D8A"/>
        <path d="M19.6457 27.3848C19.6246 27.3848 19.6034 27.3843 19.582 27.383C18.9349 27.3484 18.4384 26.7965 18.4731 26.1502C18.5012 25.626 18.131 25.1618 17.6121 25.0703C17.0936 24.9794 16.5864 25.2888 16.4333 25.7911C16.2445 26.4102 15.5889 26.7593 14.9689 26.5707C14.349 26.3822 13.9995 25.7273 14.1883 25.1082C14.6866 23.4738 16.334 22.4651 18.0197 22.7622C19.7056 23.0591 20.908 24.5695 20.8165 26.2756C20.7829 26.9005 20.265 27.3848 19.6457 27.3848Z" fill="#E6E6E6"/>
        <path d="M28.4163 27.3848C27.7969 27.3848 27.2791 26.9005 27.2456 26.2756C27.1541 24.5695 28.3565 23.0591 30.0424 22.7622C31.728 22.465 33.3754 23.4739 33.8738 25.1082C34.0626 25.7273 33.7131 26.3821 33.0932 26.5707C32.473 26.7591 31.8177 26.4102 31.6288 25.7911C31.4757 25.2889 30.9686 24.9787 30.45 25.0703C29.9311 25.1617 29.5608 25.626 29.589 26.1502C29.6236 26.7966 29.1272 27.3486 28.4801 27.3831C28.4586 27.3842 28.4373 27.3848 28.4163 27.3848Z" fill="#E6E6E6"/>
        <path d="M32.0447 11.111C31.1878 12.9238 27.9248 14.2726 24.0308 14.2726C20.1369 14.2726 16.8738 12.9237 16.017 11.111C18.1728 10.6909 20.8087 10.4644 24.0308 10.4644C27.2529 10.4644 29.8888 10.6909 32.0447 11.111Z" fill="#C6C6C6"/>
      </g>
    </g>
    <path d="M59.7206 21.75V8.625H68.5069V10.6313H61.8796V14.0438H67.9249V16.0687H61.8796V19.7438H68.7134V21.75H59.7206ZM73.9878 22.05C72.9865 22.05 72.1729 21.8688 71.5472 21.5062C70.9213 21.1312 70.4645 20.6063 70.1767 19.9313C69.9012 19.2563 69.7636 18.475 69.7636 17.5875H71.9227C71.9227 18.4 72.0978 18.9938 72.4483 19.3688C72.7988 19.7438 73.3119 19.9313 73.9878 19.9313C74.6637 19.9313 75.1706 19.7438 75.5085 19.3688C75.8465 18.9938 76.0154 18.4 76.0154 17.5875V8.625H78.212V17.5875C78.212 18.475 78.068 19.2563 77.7802 19.9313C77.4923 20.6063 77.0354 21.1312 76.4097 21.5062C75.7963 21.8688 74.989 22.05 73.9878 22.05ZM79.5497 21.75L84.5624 8.625H86.4773L91.49 21.75H89.0306L88.0168 18.8625H82.9666L81.9528 21.75H79.5497ZM83.68 16.8563H87.3222L85.5198 11.7375L83.68 16.8563ZM93.0154 21.75V8.625H97.2398C98.554 8.625 99.6861 8.86875 100.638 9.35625C101.601 9.84375 102.34 10.575 102.853 11.55C103.379 12.525 103.642 13.7375 103.642 15.1875C103.642 16.625 103.379 17.8313 102.853 18.8063C102.34 19.7813 101.601 20.5188 100.638 21.0187C99.6861 21.5062 98.554 21.75 97.2398 21.75H93.0154ZM95.1746 19.7438H97.0708C98.4226 19.7438 99.4739 19.3563 100.225 18.5812C100.988 17.7937 101.37 16.6625 101.37 15.1875C101.37 13.7 100.988 12.5688 100.225 11.7938C99.4739 11.0187 98.4226 10.6313 97.0708 10.6313H95.1746V19.7438ZM103.934 21.75L108.946 8.625H110.861L115.874 21.75H113.415L112.401 18.8625H107.351L106.337 21.75H103.934ZM108.064 16.8563H111.706L109.904 11.7375L108.064 16.8563Z" fill="#C6C6C6"/>
    <path d="M62.1359 36.8316C61.4819 36.8316 60.8968 36.6769 60.3805 36.3675C59.8642 36.0581 59.4581 35.6215 59.1621 35.0578C58.873 34.4872 58.7284 33.8169 58.7284 33.0469C58.7284 32.27 58.873 31.5997 59.1621 31.036C59.4581 30.4653 59.8642 30.0253 60.3805 29.716C60.8968 29.3997 61.4819 29.2416 62.1359 29.2416C62.7486 29.2416 63.2992 29.3791 63.788 29.6541C64.2837 29.929 64.6795 30.3141 64.9755 30.8091L63.7777 31.5C63.6056 31.1975 63.3785 30.9638 63.0962 30.7988C62.8209 30.6338 62.5008 30.5513 62.1359 30.5513C61.7297 30.5513 61.3753 30.6579 61.0723 30.871C60.7764 31.0772 60.5457 31.366 60.3805 31.7372C60.2153 32.1085 60.1327 32.545 60.1327 33.0469C60.1327 33.5419 60.2153 33.975 60.3805 34.3463C60.5457 34.7175 60.7764 35.0097 61.0723 35.2228C61.3753 35.4291 61.7297 35.5322 62.1359 35.5322C62.5008 35.5322 62.8209 35.4497 63.0962 35.2847C63.3785 35.1129 63.6056 34.879 63.7777 34.5835L64.9755 35.2744C64.6795 35.7625 64.2837 36.1441 63.788 36.4191C63.2992 36.694 62.7486 36.8316 62.1359 36.8316ZM68.7431 36.7903C67.8207 36.7903 67.1186 36.5566 66.6366 36.0891C66.1616 35.6147 65.9242 34.8997 65.9242 33.9441V29.4375H67.2768V33.8719C67.2768 34.4562 67.4077 34.8722 67.6692 35.1197C67.9377 35.3672 68.2957 35.491 68.7431 35.491C69.1906 35.491 69.5451 35.3672 69.8066 35.1197C70.0683 34.8722 70.199 34.4562 70.199 33.8719V29.4375H71.5517V33.9441C71.5517 34.8997 71.3142 35.6147 70.8392 36.0891C70.3642 36.5566 69.6656 36.7903 68.7431 36.7903ZM75.5386 36.811C74.919 36.811 74.3477 36.6769 73.8245 36.4088C73.3082 36.1338 72.8987 35.6697 72.5957 35.0166L73.7212 34.3978C73.9209 34.7553 74.1619 35.0337 74.4441 35.2331C74.7263 35.4325 75.1084 35.5322 75.5902 35.5322C76.0652 35.5322 76.3819 35.4532 76.5402 35.295C76.6985 35.13 76.7777 34.9135 76.7777 34.6453C76.7777 34.4735 76.7364 34.3256 76.6538 34.2019C76.5781 34.0781 76.406 33.9612 76.1375 33.8513C75.876 33.7344 75.4698 33.6106 74.919 33.48C74.2513 33.3219 73.7592 33.0675 73.4425 32.7169C73.1258 32.3663 72.9675 31.9297 72.9675 31.4072C72.9675 30.9741 73.0707 30.596 73.2772 30.2728C73.4838 29.9497 73.7729 29.6988 74.1446 29.52C74.5233 29.3344 74.9673 29.2416 75.4766 29.2416C75.9448 29.2416 76.3578 29.3138 76.7157 29.4581C77.0737 29.6025 77.3766 29.7916 77.6244 30.0253C77.8792 30.259 78.0787 30.5135 78.2233 30.7885L77.1597 31.5825C77.0565 31.4175 76.9292 31.256 76.7777 31.0978C76.6331 30.9328 76.4542 30.7953 76.2407 30.6853C76.0274 30.5754 75.7658 30.5203 75.456 30.5203C75.1325 30.5203 74.8674 30.589 74.6609 30.7266C74.4613 30.8572 74.3614 31.0634 74.3614 31.3453C74.3614 31.4553 74.389 31.5687 74.4441 31.6856C74.506 31.7956 74.6437 31.9057 74.8571 32.0156C75.0774 32.1256 75.425 32.239 75.9 32.356C76.7054 32.5484 77.2871 32.8372 77.645 33.2222C78.0099 33.6003 78.1923 34.0678 78.1923 34.6247C78.1923 35.3328 77.9514 35.876 77.4695 36.2541C76.9945 36.6253 76.3509 36.811 75.5386 36.811ZM81.0312 36.6563V30.675H78.9041V29.4375H84.5007V30.675H82.3839V36.6563H81.0312ZM88.4041 36.8316C87.7501 36.8316 87.165 36.6769 86.6488 36.3675C86.1325 36.0581 85.7263 35.6215 85.4303 35.0578C85.1412 34.4872 84.9966 33.8169 84.9966 33.0469C84.9966 32.27 85.1412 31.5997 85.4303 31.036C85.7263 30.4653 86.1325 30.0253 86.6488 29.716C87.165 29.3997 87.7501 29.2416 88.4041 29.2416C89.0581 29.2416 89.6398 29.3997 90.1492 29.716C90.6655 30.0253 91.0682 30.4653 91.3573 31.036C91.6533 31.5997 91.8013 32.27 91.8013 33.0469C91.8013 33.8169 91.6533 34.4872 91.3573 35.0578C91.0682 35.6215 90.6655 36.0581 90.1492 36.3675C89.6398 36.6769 89.0581 36.8316 88.4041 36.8316ZM88.4041 35.5322C88.8172 35.5322 89.1717 35.4291 89.4677 35.2228C89.7706 35.0097 90.0012 34.7175 90.1595 34.3463C90.3247 33.975 90.4073 33.5419 90.4073 33.0469C90.4073 32.545 90.3247 32.1085 90.1595 31.7372C90.0012 31.366 89.7706 31.0772 89.4677 30.871C89.1717 30.6579 88.8172 30.5513 88.4041 30.5513C87.998 30.5513 87.6435 30.6579 87.3406 30.871C87.0446 31.0772 86.814 31.366 86.6488 31.7372C86.4835 32.1085 86.4009 32.545 86.4009 33.0469C86.4009 33.5419 86.4835 33.975 86.6488 34.3463C86.814 34.7175 87.0446 35.0097 87.3406 35.2228C87.6435 35.4291 87.998 35.5322 88.4041 35.5322ZM92.8399 36.6563V29.4375H94.1825L96.1443 32.8406L98.0856 29.4375H99.4383V36.6563H98.0753V31.7578L96.5264 34.5628H95.7416L94.1928 31.7578V36.6563H92.8399ZM100.816 36.6563V29.4375H105.742V30.675H102.159V32.356H105.432V33.5935H102.159V35.4188H105.855V36.6563H100.816ZM106.887 36.6563V29.4375H110.232C110.687 29.4375 111.079 29.5062 111.41 29.6438C111.747 29.7813 112.005 30.0047 112.184 30.3141C112.37 30.6235 112.463 31.0394 112.463 31.5619C112.463 32.2081 112.321 32.6963 112.039 33.0263C111.764 33.3494 111.381 33.5557 110.893 33.645L112.36 36.6563H110.8L109.52 33.7069H108.229V36.6563H106.887ZM108.229 32.4591H110.047C110.356 32.4591 110.6 32.3904 110.78 32.2528C110.958 32.1153 111.048 31.885 111.048 31.5619C111.048 31.2457 110.958 31.0188 110.78 30.8813C110.6 30.7437 110.356 30.675 110.047 30.675H108.229V32.4591ZM115.787 36.6563L118.502 29.4375H119.69L122.406 36.6563H120.888L120.402 35.2228H117.749L117.263 36.6563H115.787ZM118.182 33.9853H119.979L119.091 31.366L118.182 33.9853ZM125.867 36.811C125.247 36.811 124.675 36.6769 124.153 36.4088C123.636 36.1338 123.227 35.6697 122.924 35.0166L124.049 34.3978C124.249 34.7553 124.49 35.0337 124.772 35.2331C125.055 35.4325 125.437 35.5322 125.918 35.5322C126.393 35.5322 126.71 35.4532 126.868 35.295C127.027 35.13 127.106 34.9135 127.106 34.6453C127.106 34.4735 127.064 34.3256 126.982 34.2019C126.906 34.0781 126.734 33.9612 126.466 33.8513C126.204 33.7344 125.798 33.6106 125.247 33.48C124.58 33.3219 124.087 33.0675 123.771 32.7169C123.454 32.3663 123.296 31.9297 123.296 31.4072C123.296 30.9741 123.399 30.596 123.605 30.2728C123.812 29.9497 124.101 29.6988 124.473 29.52C124.851 29.3344 125.295 29.2416 125.805 29.2416C126.273 29.2416 126.686 29.3138 127.044 29.4581C127.401 29.6025 127.705 29.7916 127.952 30.0253C128.207 30.259 128.407 30.5135 128.551 30.7885L127.488 31.5825C127.385 31.4175 127.257 31.256 127.106 31.0978C126.961 30.9328 126.782 30.7953 126.569 30.6853C126.356 30.5754 126.094 30.5203 125.784 30.5203C125.46 30.5203 125.195 30.589 124.989 30.7266C124.789 30.8572 124.69 31.0634 124.69 31.3453C124.69 31.4553 124.717 31.5687 124.772 31.6856C124.834 31.7956 124.972 31.9057 125.185 32.0156C125.406 32.1256 125.753 32.239 126.228 32.356C127.033 32.5484 127.615 32.8372 127.973 33.2222C128.338 33.6003 128.52 34.0678 128.52 34.6247C128.52 35.3328 128.279 35.876 127.798 36.2541C127.323 36.6253 126.679 36.811 125.867 36.811ZM132.35 36.811C131.731 36.811 131.16 36.6769 130.636 36.4088C130.12 36.1338 129.711 35.6697 129.407 35.0166L130.533 34.3978C130.733 34.7553 130.974 35.0337 131.256 35.2331C131.538 35.4325 131.92 35.5322 132.402 35.5322C132.877 35.5322 133.194 35.4532 133.352 35.295C133.511 35.13 133.589 34.9135 133.589 34.6453C133.589 34.4735 133.548 34.3256 133.465 34.2019C133.39 34.0781 133.218 33.9612 132.949 33.8513C132.688 33.7344 132.282 33.6106 131.731 33.48C131.063 33.3219 130.571 33.0675 130.254 32.7169C129.938 32.3663 129.779 31.9297 129.779 31.4072C129.779 30.9741 129.882 30.596 130.089 30.2728C130.295 29.9497 130.585 29.6988 130.956 29.52C131.336 29.3344 131.78 29.2416 132.288 29.2416C132.757 29.2416 133.17 29.3138 133.527 29.4581C133.886 29.6025 134.188 29.7916 134.436 30.0253C134.691 30.259 134.89 30.5135 135.035 30.7885L133.971 31.5825C133.868 31.4175 133.741 31.256 133.589 31.0978C133.445 30.9328 133.266 30.7953 133.052 30.6853C132.839 30.5754 132.577 30.5203 132.268 30.5203C131.945 30.5203 131.679 30.589 131.473 30.7266C131.274 30.8572 131.173 31.0634 131.173 31.3453C131.173 31.4553 131.201 31.5687 131.256 31.6856C131.318 31.7956 131.456 31.9057 131.669 32.0156C131.889 32.1256 132.237 32.239 132.712 32.356C133.517 32.5484 134.099 32.8372 134.457 33.2222C134.822 33.6003 135.004 34.0678 135.004 34.6247C135.004 35.3328 134.764 35.876 134.281 36.2541C133.806 36.6253 133.163 36.811 132.35 36.811ZM136.15 36.6563V29.4375H137.493V36.6563H136.15ZM141.557 36.811C140.938 36.811 140.366 36.6769 139.843 36.4088C139.327 36.1338 138.918 35.6697 138.614 35.0166L139.74 34.3978C139.94 34.7553 140.18 35.0337 140.463 35.2331C140.745 35.4325 141.127 35.5322 141.609 35.5322C142.084 35.5322 142.4 35.4532 142.559 35.295C142.717 35.13 142.796 34.9135 142.796 34.6453C142.796 34.4735 142.755 34.3256 142.672 34.2019C142.596 34.0781 142.425 33.9612 142.156 33.8513C141.894 33.7344 141.489 33.6106 140.938 33.48C140.27 33.3219 139.777 33.0675 139.461 32.7169C139.145 32.3663 138.986 31.9297 138.986 31.4072C138.986 30.9741 139.089 30.596 139.296 30.2728C139.502 29.9497 139.791 29.6988 140.163 29.52C140.541 29.3344 140.985 29.2416 141.495 29.2416C141.964 29.2416 142.377 29.3138 142.734 29.4581C143.092 29.6025 143.395 29.7916 143.643 30.0253C143.897 30.259 144.097 30.5135 144.242 30.7885L143.178 31.5825C143.075 31.4175 142.947 31.256 142.796 31.0978C142.652 30.9328 142.472 30.7953 142.259 30.6853C142.046 30.5754 141.784 30.5203 141.475 30.5203C141.151 30.5203 140.886 30.589 140.679 30.7266C140.48 30.8572 140.38 31.0634 140.38 31.3453C140.38 31.4553 140.407 31.5687 140.463 31.6856C140.525 31.7956 140.663 31.9057 140.876 32.0156C141.096 32.1256 141.444 32.239 141.919 32.356C142.724 32.5484 143.306 32.8372 143.664 33.2222C144.029 33.6003 144.211 34.0678 144.211 34.6247C144.211 35.3328 143.97 35.876 143.488 36.2541C143.013 36.6253 142.369 36.811 141.557 36.811ZM147.05 36.6563V30.675H144.922V29.4375H150.519V30.675H148.402V36.6563H147.05ZM149.829 36.6563L152.545 29.4375H153.732L156.448 36.6563H154.93L154.445 35.2228H151.791L151.306 36.6563H149.829ZM152.225 33.9853H154.021L153.133 31.366L152.225 33.9853ZM157.225 36.6563V29.4375H158.567L161.799 34.3153V29.4375H163.152V36.6563H161.872L158.567 31.6135V36.6563H157.225ZM166.219 36.6563V30.675H164.092V29.4375H169.688V30.675H167.572V36.6563H166.219Z" fill="#153D8A"/>
  </g>
  <defs>
    <filter id="filter0_d_54_448" x="2.38391" y="10.4644" width="43.2941" height="35.0713" filterUnits="userSpaceOnUse" color-interpolation-filters="sRGB">
      <feFlood flood-opacity="0" result="BackgroundImageFix"/>
      <feColorMatrix in="SourceAlpha" type="matrix" values="0 0 0 0 0 0 0 0 0 0 0 0 0 0 0 0 0 0 127 0" result="hardAlpha"/>
      <feOffset dy="4"/>
      <feGaussianBlur stdDeviation="2"/>
      <feComposite in2="hardAlpha" operator="out"/>
      <feColorMatrix type="matrix" values="0 0 0 0 0 0 0 0 0 0 0 0 0 0 0 0 0 0 0.25 0"/>
      <feBlend mode="normal" in2="BackgroundImageFix" result="effect1_dropShadow_54_448"/>
      <feBlend mode="normal" in="SourceGraphic" in2="effect1_dropShadow_54_448" result="shape"/>
    </filter>
    <clipPath id="clip0_54_448">
      <rect width="170" height="48" fill="white"/>
    </clipPath>
  </defs>
</svg>